<?xml version="1.0" encoding="UTF-8" standalone="no"?>
<!-- Created with Inkscape (http://www.inkscape.org/) -->

<svg
   xmlns:dc="http://purl.org/dc/elements/1.1/"
   xmlns:cc="http://creativecommons.org/ns#"
   xmlns:rdf="http://www.w3.org/1999/02/22-rdf-syntax-ns#"
   xmlns:svg="http://www.w3.org/2000/svg"
   xmlns="http://www.w3.org/2000/svg"
   xmlns:sodipodi="http://sodipodi.sourceforge.net/DTD/sodipodi-0.dtd"
   xmlns:inkscape="http://www.inkscape.org/namespaces/inkscape"
   width="158.72354mm"
   height="89.429169mm"
   viewBox="0 0 158.72354 89.429169"
   version="1.1"
   id="svg8"
   inkscape:version="0.92.2 (5c3e80d, 2017-08-06)">
  <defs
     id="defs2" />
  <sodipodi:namedview
     id="base"
     pagecolor="#ffffff"
     bordercolor="#666666"
     borderopacity="1.0"
     inkscape:pageopacity="0.0"
     inkscape:pageshadow="2"
     inkscape:zoom="0.35"
     inkscape:cx="155.71428"
     inkscape:cy="-28.571713"
     inkscape:document-units="mm"
     inkscape:current-layer="layer1"
     showgrid="false"
     fit-margin-top="0"
     fit-margin-left="0"
     fit-margin-right="0"
     fit-margin-bottom="0"
     inkscape:window-width="1347"
     inkscape:window-height="687"
     inkscape:window-x="459"
     inkscape:window-y="161"
     inkscape:window-maximized="0" />
  <metadata
     id="metadata5">
    <rdf:RDF>
      <cc:Work
         rdf:about="">
        <dc:format>image/svg+xml</dc:format>
        <dc:type
           rdf:resource="http://purl.org/dc/dcmitype/StillImage" />
        <dc:title></dc:title>
      </cc:Work>
    </rdf:RDF>
  </metadata>
  <g
     inkscape:label="Layer 1"
     inkscape:groupmode="layer"
     id="layer1"
     transform="translate(-158.75,-60.915996)">
    <g
       id="g821"
       transform="matrix(0.83651394,0,0,0.70000001,154.32345,45.103495)">
      <rect
         y="22.589287"
         x="5.2916665"
         height="127.75595"
         width="189.74405"
         id="rect817"
         style="opacity:1;vector-effect:none;fill:#e6e6e6;fill-opacity:1;stroke:none;stroke-width:1.05833328;stroke-linecap:butt;stroke-linejoin:miter;stroke-miterlimit:4;stroke-dasharray:none;stroke-dashoffset:0;stroke-opacity:1" />
      <path
         inkscape:transform-center-y="2.8272306"
         inkscape:transform-center-x="1.5839346"
         d="M 107.68847,89.681448 C 125.07358,136.06206 18.093101,130.97464 48.771071,92.086784 78.087437,54.924917 111.00087,45.976665 105.11389,92.942581 98.953502,142.08984 6.5912334,87.868844 51.827315,67.692121 95.055648,48.410916 128.3575,55.783265 101.3187,94.633707 73.024074,135.28856 16.439098,44.355372 65.87025,47.512026 113.10746,50.528576 139.16869,72.53261 97.172315,94.367409 53.225414,117.21633 45.380668,10.402637 87.682808,36.169517 128.10742,60.792766 140.95771,92.387626 93.624629,92.204693 44.093158,92.013264 86.785778,-6.2111983 112.268,36.263026 136.61922,76.852084 133.31472,110.79977 91.488373,88.641011 47.719395,65.453087 131.16902,-1.6801052 133.99364,47.77113 136.69291,95.027534 117.99064,123.55104 91.252938,84.49276 63.273398,43.620415 168.36272,22.957898 147.88267,68.057463 128.3116,111.15534 98.496032,127.72027 92.972258,80.710254 87.191933,31.51685 189.84625,62.058541 150.75326,92.474669 113.39536,121.54081 79.296874,122.35235 96.25246,78.16002 c 17.74309,-46.244848 94.44555,28.50432 45.69534,37.26904 -46.586493,8.37571 -77.156337,-6.75207 -41.60571,-38.002775 37.20178,-32.702154 70.38076,69.130355 23.14142,54.235775 C 78.340836,117.42857 58.302812,89.827069 104.30426,78.677139 152.44224,67.009349 134.49685,172.5966 99.590347,137.45489 66.233129,103.87291 61.317395,70.120863 107.23128,81.626027 155.27764,93.66555 90.318942,178.81878 75.741937,131.48048 61.811914,86.243238 73.144605,54.072831 108.45262,85.597394 145.40051,118.58612 48.309762,163.79774 57.401667,115.10749 66.090039,68.5783 91.074972,45.359383 107.68847,89.681448 Z"
         inkscape:randomized="0"
         inkscape:rounded="-0.84"
         inkscape:flatsided="false"
         sodipodi:arg2="3.0245656"
         sodipodi:arg1="0.42662749"
         sodipodi:r2="51.365978"
         sodipodi:r1="8.68085"
         sodipodi:cy="86.089287"
         sodipodi:cx="99.785713"
         sodipodi:sides="13"
         id="path815"
         style="opacity:1;vector-effect:none;fill:none;fill-opacity:0.25098039;stroke:#ffffff;stroke-width:1.05833328;stroke-linecap:butt;stroke-linejoin:miter;stroke-miterlimit:4;stroke-dasharray:none;stroke-dashoffset:0;stroke-opacity:1"
         sodipodi:type="star" />
    </g>
  </g>
</svg>
