<?xml version="1.0" encoding="UTF-8"?>
<svg width="502" height="136" version="1.1" viewBox="0 0 132.82 35.983" xmlns="http://www.w3.org/2000/svg"><g transform="translate(17.242 -25.197)"><g transform="matrix(.10022 0 0 .10022 17.778 110.86)"><g transform="translate(631.42 785.86)"><g transform="translate(-304.55 -594.61)"><path d="m-540.08-689.61c1.7974-0.22256 4.4974-0.21797 6 0.0102 1.5026 0.22818 0.0321 0.41027-3.2679 0.40466-3.3-6e-3 -4.5294-0.1923-2.7321-0.41486zm314.48 8e-3c1.5125-0.22913 3.9875-0.22913 5.5 0 1.5125 0.22912 0.275 0.41659-2.75 0.41659s-4.2625-0.18747-2.75-0.41659zm-298.09-18.283c0-1.375 0.22698-1.9375 0.50439-1.25s0.27741 1.8125 0 2.5-0.50439 0.125-0.50439-1.25zm421-6c0-1.375 0.22698-1.9375 0.50439-1.25s0.27741 1.8125 0 2.5-0.50439 0.125-0.50439-1.25zm-555.96-1.5c0.0204-1.65 0.2445-2.2039 0.49804-1.231s0.23687 2.323-0.0371 3c-0.27393 0.67703-0.48137-0.11903-0.46099-1.769zm136.96-16.5c0-1.375 0.22698-1.9375 0.50439-1.25s0.27741 1.8125 0 2.5-0.50439 0.125-0.50439-1.25zm282-1c0-1.375 0.22698-1.9375 0.50439-1.25s0.27741 1.8125 0 2.5-0.50439 0.125-0.50439-1.25zm146-3c0-1.375 0.22698-1.9375 0.50439-1.25s0.27741 1.8125 0 2.5-0.50439 0.125-0.50439-1.25zm-574-1c0-1.375 0.22698-1.9375 0.50439-1.25s0.27741 1.8125 0 2.5-0.50439 0.125-0.50439-1.25zm575.04-13.5c0.0204-1.65 0.2445-2.2039 0.49804-1.231s0.23687 2.323-0.0371 3c-0.27393 0.67703-0.48137-0.11903-0.46099-1.769zm-576.04-1.5c0-1.375 0.22698-1.9375 0.50439-1.25s0.27741 1.8125 0 2.5-0.50439 0.125-0.50439-1.25zm14.092-6.735c2.6125-0.206 6.8875-0.206 9.5 0s0.475 0.37454-4.75 0.37454-7.3625-0.16854-4.75-0.37454zm539 0c2.6125-0.206 6.8875-0.206 9.5 0s0.475 0.37454-4.75 0.37454-7.3625-0.16854-4.75-0.37454zm-403.09-9.265c0-1.375 0.22698-1.9375 0.50439-1.25s0.27741 1.8125 0 2.5-0.50439 0.125-0.50439-1.25zm50.343-4.2853c-0.28587-1.2181-0.71067-4.6897-0.944-7.7147-0.23332-3.025-1.7948-15.625-3.4699-28s-3.0549-22.825-3.0662-23.223c-0.0113-0.39776-4.2557-0.44501-9.432-0.10499-10.68 0.70152-11.643-0.12472-8.9426-7.6718 0.68872-1.925 1.7656-5.525 2.393-8 0.62746-2.475 1.7117-5.85 2.4095-7.5 0.69775-1.65 2.8972-8.8025 4.8878-15.894s3.8428-13.118 4.1161-13.391c0.27334-0.27334 3.5703 1.7454 7.3266 4.4861l6.8296 4.983 3.4457-2.4118c5.7929-4.0546 16.638-9.2169 22.656-10.784 9.9021-2.5792 9.5869-2.7934 12.159 8.2628 1.2475 5.3625 3.393 14.475 4.7678 20.25 4.5404 19.073 5.4602 24.297 4.509 25.609-0.35553 0.49028-4.2359 0.90106-8.623 0.91285l-7.9766 0.0214-3.8043 16.479c-2.0924 9.0632-4.2578 18.912-4.812 21.887s-1.2818 5.8515-1.6169 6.3936c-0.33502 0.54207-0.81948 2.8334-1.0766 5.092s-0.97974 5.6814-1.6059 7.6064l-1.1384 3.5-7.8035 0.16496c-4.292 0.0907-8.4482 0.41234-9.2362 0.7147-0.91124 0.34967-1.6218-0.25627-1.9524-1.665zm174.28 1.7283c-0.37765-0.37765-4.2257-0.62233-8.5512-0.54372-9.8436 0.1789-8.524 2.8053-16.278-32.399-3.392-15.4-6.6771-28.319-7.3002-28.709-0.62308-0.39007-4.1736-0.65267-7.89-0.58355-7.5602 0.14061-7.6862 0.0883-7.9153-3.2877-0.18348-2.7033 2.9608-17.531 4.2464-20.025 0.4551-0.88284 1.3081-4.6137 1.8955-8.2908 0.58742-3.6771 1.6863-8.5797 2.4419-10.895 0.75563-2.3151 1.6773-6.3844 2.0481-9.0429l0.67424-4.8337 5.1762 0.68386c6.1604 0.81388 16.335 4.6895 22.636 8.6224 8.8955 5.552 8.0392 5.5328 15.61 0.34966 6.8268-4.6738 6.8672-4.6863 7.5814-2.3437 0.39489 1.2953 3.8093 12.255 7.5876 24.355 8.6609 27.736 8.7569 26.966-3.2606 26.176l-9.2342-0.60657-0.55052 3.7152c-0.30278 2.0434-1.9667 15.19-3.6976 29.215-3.143 25.466-3.9266 29.736-5.22 28.443zm190.77-0.37387c-0.31644-0.512-0.11799-1.2136 0.44098-1.559s1.0163 0.0734 1.0163 0.9309c0 1.7565-0.60006 2.0152-1.4573 0.62812zm-411.04-4.7244c9.5881-0.73323 20.278-0.78423 19.849-0.0947-0.2568 0.4125-5.7278 0.67138-12.158 0.57529-6.43-0.0961-9.891-0.31235-7.691-0.48059zm248.15-0.0947c-0.25679-0.4125 3.2042-0.62877 7.691-0.4806 14.701 0.48547 16.362 0.87814 4.4669 1.0559-6.43 0.0961-11.901-0.16279-12.158-0.57529zm-401.49-36.25c0-1.375 0.22698-1.9375 0.50439-1.25s0.27741 1.8125 0 2.5-0.50439 0.125-0.50439-1.25zm574.04-1.5c0.0204-1.65 0.2445-2.2039 0.49804-1.231s0.23687 2.323-0.0371 3c-0.27393 0.67703-0.48137-0.11903-0.46099-1.769zm-572.94-17c0.0111-2.2 0.21589-2.9822 0.45508-1.7383s0.23011 3.0439-0.0202 4c-0.25029 0.95609-0.446-0.0617-0.4349-2.2617zm572.02-3.5c0-2.475 0.19502-3.4875 0.43337-2.25 0.23836 1.2375 0.23836 3.2625 0 4.5-0.23835 1.2375-0.43337 0.225-0.43337-2.25zm-26.114-20c0-1.375 0.22698-1.9375 0.50439-1.25s0.27741 1.8125 0 2.5-0.50439 0.125-0.50439-1.25zm-519.96-1.5c0.0204-1.65 0.2445-2.2039 0.49804-1.231s0.23687 2.323-0.0371 3c-0.27393 0.67703-0.48137-0.11903-0.46099-1.769zm546.04-15.5c0-1.925 0.2058-2.7125 0.45733-1.75 0.25152 0.9625 0.25152 2.5375 0 3.5-0.25153 0.9625-0.45733 0.175-0.45733-1.75zm-148-10c0-1.925 0.2058-2.7125 0.45733-1.75 0.25152 0.9625 0.25152 2.5375 0 3.5-0.25153 0.9625-0.45733 0.175-0.45733-1.75zm105.04-2c0-2.475 0.19502-3.4875 0.43337-2.25 0.23836 1.2375 0.23836 3.2625 0 4.5-0.23835 1.2375-0.43337 0.225-0.43337-2.25zm-345.77-49.599c-8.8-5.2781-16.154-9.7444-16.343-9.9252-0.18861-0.18076 0.99184-1.0189 2.6232-1.8625s3.2482-1.2518 3.5929-0.90707c0.34473 0.34473 0.62678 0.0752 0.62678-0.5989 0-0.67413 0.35526-1.0061 0.78946-0.73777s2.7401-0.82213 5.1241-2.4233c2.3841-1.6012 4.7288-2.6676 5.2105-2.3699 0.48173 0.29772 0.87587 0.0382 0.87587-0.57672s0.45-0.83992 1-0.5 1 0.1718 1-0.3736c0-0.97598 2.9554-2.3294 4.0714-1.8644 0.31428 0.13092 1.3589-0.54946 2.3214-1.512s2.4344-1.75 3.2708-1.75 2.6201-0.86467 3.9636-1.9215l2.4428-1.9215-2.285-0.69344c-1.2568-0.3814-3.2976-1.6202-4.535-2.7528s-2.25-1.6862-2.25-1.2301c0 1.2778-3.9721-2.5424-7.1282-6.8556-1.5595-2.1312-2.592-4.2687-2.2946-4.75 0.29745-0.48129 0.0784-0.87507-0.48681-0.87507-0.5652 0-0.76861-0.675-0.45203-1.5 0.31659-0.825 0.0775-1.5-0.53138-1.5-2.0821 0-1.3629-14.094 0.89301-17.5 1.0928-1.65 1.9898-3.8016 1.9934-4.7814 4e-3 -0.9797 0.67901-2.0394 1.5008-2.3548 0.82184-0.3153 1.2593-0.9535 0.97219-1.4181-0.59516-0.963 5.3135-5.5767 6.654-5.1957 0.48376 0.1375 0.87956-0.2266 0.87956-0.809 0-0.5825 0.41157-0.8047 0.91459-0.4938s1.0941 0.027 1.3136-0.6317c0.40657-1.2197 12.586-2.4846 15.001-1.558 0.69919 0.2683 1.7212 0.6255 2.2712 0.7938 0.55 0.1682 1.5988 0.9046 2.3306 1.6365 0.73184 0.7318 1.7443 1.0749 2.25 0.7624s0.91938-0.092 0.91938 0.4908c0 0.5824 0.51704 1.059 1.149 1.059 1.6828 0 7.851 6.6391 7.851 8.4504 0 0.8523 0.45 1.5496 1 1.5496s0.92733 0.3375 0.83852 0.75c-0.0888 0.4125 0.36118 2.0168 1 3.5651 1.4572 3.5319 1.5151 14.156 0.0916 16.816-0.58845 1.0995-1.2469 2.9183-1.4633 4.0417-0.56444 2.9309-5.2818 8.8068-7.8562 9.7856-1.2061 0.45854-2.7919 1.5556-3.5242 2.4379-0.73228 0.8823-1.9551 1.6042-2.7174 1.6042-3.2522 0 1.1762 3.7057 7.7352 6.4729 3.7926 1.6001 6.8957 3.2998 6.8957 3.7772s0.42234 0.60692 0.93854 0.28789c0.5162-0.31902 1.4025 0.21692 1.9696 1.191 0.56708 0.97406 1.0447 1.4244 1.0615 1.0007 0.0167-0.42368 1.874 0.17021 4.1273 1.3198 2.2533 1.1495 3.9408 2.2162 3.75 2.3703-1.2764 1.031-43.842 23.58-44.51 23.579-0.46003-5.8e-4 -8.0364-4.3195-16.836-9.5976zm167.02-1.8622c-21.45-11.688-25.641-14.822-18.268-13.658 0.4125 0.0651 0.75-0.28756 0.75-0.78375 0-0.4962 1.2375-1.4021 2.75-2.0132s5.45-2.6669 8.75-4.5686 6.8625-3.4707 7.9167-3.4868c1.0542-0.0161 1.6237-0.32227 1.2655-0.68038-0.35812-0.35812 0.12938-1.2438 1.0833-1.9682 1.5144-1.1499 1.5321-1.3211 0.13945-1.3489-0.87726-0.0175-2.412-0.93456-3.4105-2.0379s-2.0496-1.7721-2.3356-1.486c-0.76564 0.76563-6.1588-4.6592-6.1588-6.195 0-0.7221-0.4077-1.3129-0.906-1.3129-3.7116 0-5.2641-18.825-2.1232-25.745 2.3087-5.0861 7.9968-12.393 9.1112-11.704 0.43727 0.2703 1.1602-0.1568 1.6065-0.9489 0.4463-0.7922 1.4865-1.5891 2.3115-1.771 0.825-0.182 1.8067-0.7575 2.1815-1.279 0.88015-1.2246 13.231-2.0216 15.547-1.0033 0.97419 0.4283 1.9962 0.8565 2.2712 0.9515 4.4391 1.5336 11.229 6.3209 10.541 7.4329-0.24146 0.3907 0.43792 1.4612 1.5098 2.3789 1.0718 0.9178 1.9488 2.3105 1.9488 3.0951 0 0.7845 0.56099 1.6134 1.2466 1.842 2.4434 0.81443 2.2649 16.726-0.25059 22.345-2.3111 5.1627-9.7389 13.683-11.162 12.804-0.45889-0.28361-0.83435-0.074-0.83435 0.46581s-1.6421 1.5234-3.6492 2.1858c-3.2667 1.0781-3.4501 1.3131-1.75 2.2421 1.0445 0.57077 2.1572 1.4243 2.4726 1.8966 0.31543 0.47239 1.4404 1.0264 2.5 1.2311 2.9415 0.56824 9.4265 3.8472 9.4265 4.7662 0 0.44814 0.64445 0.81479 1.4321 0.81479s5.5765 2.0902 10.642 4.6448l9.2098 4.6448-5.2375 3.1052c-2.8806 1.7079-10.185 6.1427-16.231 9.8552s-11.516 6.7439-12.154 6.7364c-0.63824-7e-3 -10.603-5.1588-22.143-11.447zm-208.52-34.852c0-0.1721 1.4625-1.6346 3.25-3.25l3.25-2.9371-2.9371 3.25c-2.7378 3.0294-3.5629 3.7096-3.5629 2.9371zm285.92-2.4371-2.4243-2.75 2.75 2.4243c1.5125 1.3334 2.75 2.5709 2.75 2.75 0 0.78428-0.8098 0.14598-3.0757-2.4243zm36.576 0.75c0.99549-1.1 2.035-2 2.31-2s-0.31449 0.9-1.31 2-2.035 2-2.31 2 0.31449-0.9 1.31-2zm-202.1-4.25-1.905-2.25 2.25 1.905c2.1144 1.7902 2.7052 2.595 1.905 2.595-0.18976 0-1.2023-1.0125-2.25-2.25zm307.89-9.75c0-3.025 0.18747-4.2625 0.41659-2.75 0.22913 1.5125 0.22913 3.9875 0 5.5-0.22912 1.5125-0.41659 0.275-0.41659-2.75zm-568.03 0c0-2.475 0.19502-3.4875 0.43337-2.25 0.23836 1.2375 0.23836 3.2625 0 4.5-0.23835 1.2375-0.43337 0.225-0.43337-2.25zm88.98-7.5c0.0111-2.2 0.21589-2.9822 0.45508-1.7383s0.23011 3.0439-0.0202 4c-0.25027 0.95609-0.44598-0.0617-0.43488-2.2617zm389.98-0.5c0-1.925 0.2058-2.7125 0.45733-1.75 0.25152 0.9625 0.25152 2.5375 0 3.5-0.25153 0.9625-0.45733 0.175-0.45733-1.75zm-229.96-12c0-2.475 0.19502-3.4875 0.43337-2.25 0.23836 1.2375 0.23836 3.2625 0 4.5-0.23835 1.2375-0.43337 0.225-0.43337-2.25zm70 0c0-2.475 0.19502-3.4875 0.43337-2.25 0.23836 1.2375 0.23836 3.2625 0 4.5-0.23835 1.2375-0.43337 0.225-0.43337-2.25zm-305.77-25c0.99549-1.1 2.035-2 2.31-2s-0.31449 0.9-1.31 2-2.035 2-2.31 2 0.31449-0.9 1.31-2z" fill="#92b6d1"/><path d="m-530.58-689.58c0.97297-0.25354 2.323-0.23687 3 0.0371 0.67703 0.27393-0.11903 0.48137-1.769 0.46099-1.65-0.0204-2.2039-0.2445-1.231-0.49804zm296.48-0.0127c1.2375-0.23836 3.2625-0.23836 4.5 0 1.2375 0.23835 0.225 0.43337-2.25 0.43337s-3.4875-0.19502-2.25-0.43337zm-372-5.9566c0.6875-0.27741 1.8125-0.27741 2.5 0s0.125 0.50439-1.25 0.50439-1.9375-0.22698-1.25-0.50439zm450 0c0.6875-0.27741 1.8125-0.27741 2.5 0s0.125 0.50439-1.25 0.50439-1.9375-0.22698-1.25-0.50439zm-368.59-3.3377c0-1.375 0.22698-1.9375 0.50439-1.25s0.27741 1.8125 0 2.5-0.50439 0.125-0.50439-1.25zm288-1c0-1.375 0.22698-1.9375 0.50439-1.25s0.27741 1.8125 0 2.5-0.50439 0.125-0.50439-1.25zm134.04-9.5c0.0204-1.65 0.2445-2.2039 0.49804-1.231s0.23687 2.323-0.0371 3c-0.27393 0.67703-0.48137-0.11903-0.46099-1.769zm5.9629-0.5c0-1.375 0.22698-1.9375 0.50439-1.25s0.27741 1.8125 0 2.5-0.50439 0.125-0.50439-1.25zm-562-1c0-1.375 0.22698-1.9375 0.50439-1.25s0.27741 1.8125 0 2.5-0.50439 0.125-0.50439-1.25zm557.24-32.5c1e-3 -8.25 0.15629-11.492 0.34419-7.2043 0.1879 4.2876 0.18676 11.038-3e-3 15-0.1893 3.9624-0.34304 0.45429-0.34164-7.7957zm-558.03 0c3e-3 -5.5 0.17053-7.6224 0.37317-4.7165 0.20265 2.9059 0.20052 7.4059-5e-3 10-0.20525 2.5941-0.37104 0.21648-0.36844-5.2835zm565.79 3.5c0-1.375 0.22698-1.9375 0.50439-1.25s0.27741 1.8125 0 2.5-0.50439 0.125-0.50439-1.25zm-574-1c0-1.375 0.22698-1.9375 0.50439-1.25s0.27741 1.8125 0 2.5-0.50439 0.125-0.50439-1.25zm575.07-15c0-1.925 0.2058-2.7125 0.45733-1.75 0.25152 0.9625 0.25152 2.5375 0 3.5-0.25153 0.9625-0.45733 0.175-0.45733-1.75zm-575.98-1.5c0.0111-2.2 0.21589-2.9822 0.45508-1.7383s0.23011 3.0439-0.0202 4c-0.25029 0.95609-0.446-0.0617-0.4349-2.2617zm9.7478-6.8c0-2.915 0.39885-5.7275 0.88633-6.25 1.4477-1.5517 8.1039-17.628 8.2297-19.876 0.11236-2.0088 0.13069-2.0112 0.58421-0.0739 0.25752 1.1 2.0053 8.285 3.884 15.967s3.4158 14.319 3.4158 14.75-3.825 0.78344-8.5 0.78344h-8.5v-5.3zm92.325 3.55c-0.33686-0.9625-1.8777-4.7875-3.424-8.5l-2.8116-6.75h4.388c4.8764 0 4.9786 0.14358 6.0499 8.5 0.35256 2.75 0.85852 5.7875 1.1244 6.75 0.37056 1.3417-0.12297 1.75-2.1154 1.75-1.575 0-2.84-0.68938-3.2112-1.75zm367.09 0.062c0.17934-0.99661 0.63451-4.062 1.0115-6.812 1.1496-8.3862 1.2308-8.5 6.061-8.5h4.3547l-3.3209 8.25c-2.8334 7.039-3.696 8.2958-5.8766 8.562-2.0047 0.24476-2.4855-0.0787-2.2297-1.5zm80.763-0.062c0.17575-0.9625 1.8647-8.1121 3.7532-15.888l3.4337-14.138 3.874 9.638c2.1307 5.3009 4.2981 10.065 4.8163 10.588 0.51826 0.5225 0.94229 3.335 0.94229 6.25v5.3h-8.5696c-7.6166 0-8.534-0.19461-8.25-1.75zm-400.02-11.25c0-1.375 0.22698-1.9375 0.50439-1.25s0.27741 1.8125 0 2.5-0.50439 0.125-0.50439-1.25zm276-1c0-1.375 0.22698-1.9375 0.50439-1.25s0.27741 1.8125 0 2.5-0.50439 0.125-0.50439-1.25zm-416-1c0-1.375 0.22698-1.9375 0.50439-1.25s0.27741 1.8125 0 2.5-0.50439 0.125-0.50439-1.25zm556.04-1.5c0.0204-1.65 0.2445-2.2039 0.49804-1.231s0.23687 2.323-0.0371 3c-0.27393 0.67703-0.48137-0.11903-0.46099-1.769zm-528.52-16.75c-3.9936-18.599-6.4484-32.75-5.6813-32.75 1.9927 0 11.328-36.353 13.109-51.049 0.6633-5.4729 1.5608-9.9507 1.9944-9.9507 0.4336 0 3.7208 2.4878 7.305 5.5284l6.5166 5.5284 6.2903-5.0848c7.0512-5.6999 16.029-10.345 23.024-11.912 12.691-2.8442 15.972 6.609 10.391 29.943-1.3815 5.7765-5.0233 21.95-8.0928 35.941-3.0695 13.991-5.6844 25.542-5.8109 25.668s-4.2451-9.8596-9.1526-22.191c-8.7986-22.109-9.8779-24.17-10.805-20.625-1.0065 3.8487-25.287 63.204-25.855 63.204-0.33152 0-1.7864-5.5125-3.233-12.25zm484.82-20.238c-7.15-17.861-13.255-32.483-13.566-32.493-0.3114-0.0101-4.6169 10.138-9.5677 22.55l-9.0015 22.569-8.1842-36.819c-9.549-42.958-10.091-48.562-5.1709-53.482 2.7266-2.7266 3.4067-2.9423 7.2368-2.2952 9.233 1.5599 16.603 5.2265 26.17 13.02 5.063 4.1243 5.8896 4.4856 7.3923 3.2308 0.9305-0.77701 3.8927-3.2981 6.5826-5.6023s5.2078-4.1896 5.5953-4.1896 1.2472 4.4778 1.9105 9.9507c1.7493 14.433 10.893 49.953 13.084 50.83 1.183 0.47307-7.6109 45.227-8.8841 45.213-0.32831-4e-3 -6.4469-14.62-13.597-32.482zm-522.34 18.488c0-1.375 0.22698-1.9375 0.50439-1.25s0.27741 1.8125 0 2.5-0.50439 0.125-0.50439-1.25zm576.04-0.5c0.0204-1.65 0.2445-2.2039 0.49804-1.231s0.23687 2.323-0.0371 3c-0.27393 0.67703-0.48137-0.11903-0.46099-1.769zm-575-13c0.0204-1.65 0.2445-2.2039 0.49804-1.231s0.23687 2.323-0.0371 3c-0.27393 0.67703-0.48137-0.11903-0.46099-1.769zm573.96-1.5c0-1.375 0.22698-1.9375 0.50439-1.25s0.27741 1.8125 0 2.5-0.50439 0.125-0.50439-1.25zm-573-16c0-1.375 0.22698-1.9375 0.50439-1.25s0.27741 1.8125 0 2.5-0.50439 0.125-0.50439-1.25zm572.04-2.5c0.0204-1.65 0.2445-2.2039 0.49804-1.231s0.23687 2.323-0.0371 3c-0.27393 0.67703-0.48137-0.11903-0.46099-1.769zm-26.037-22.5c0-1.375 0.22698-1.9375 0.50439-1.25s0.27741 1.8125 0 2.5-0.50439 0.125-0.50439-1.25zm-520-1c0-1.375 0.22698-1.9375 0.50439-1.25s0.27741 1.8125 0 2.5-0.50439 0.125-0.50439-1.25zm231.15-11.5c6e-3 -3.3 0.1923-4.5294 0.41486-2.7321s0.21797 4.4974-0.0102 6c-0.22818 1.5026-0.41027 0.0321-0.40466-3.2679zm57.976 0c8e-3 -2.75 0.20172-3.7563 0.43157-2.2362 0.22986 1.5201 0.22371 3.7701-0.0136 5-0.23736 1.2299-0.42542-0.0137-0.41792-2.7638zm232.01-7.5c0-3.025 0.18747-4.2625 0.41659-2.75 0.22913 1.5125 0.22913 3.9875 0 5.5-0.22912 1.5125-0.41659 0.275-0.41659-2.75zm-522.1-0.5c0.0204-1.65 0.2445-2.2039 0.49804-1.231s0.23687 2.323-0.0371 3c-0.27393 0.67703-0.48137-0.11903-0.46099-1.769zm123-7c0.0204-1.65 0.2445-2.2039 0.49804-1.231s0.23687 2.323-0.0371 3c-0.27393 0.67703-0.48137-0.11903-0.46099-1.769zm-102.3-54.868c-12.354-10.336-16.581-14.343-15.803-14.979 1.1727-0.95751 24.911-13.653 25.528-13.653 0.39864 0 1.5381-0.73606 2.5322-1.6357 1.7158-1.5528 1.5445-1.7936-3.3803-4.75-11.765-7.0626-17.202-21.07-13.651-35.172 0.6153-2.4435 1.5419-4.4428 2.059-4.4428 0.51717 0 0.72877-0.3423 0.47024-0.7606-0.9554-1.5458 5.0666-8.7865 9.6797-11.638 3.2492-2.0089 6.502-3.0881 10.243-3.3983 29.218-2.4229 38.373 44.573 11.073 56.84l-3.8568 1.7329 12.357 6.5617c6.7962 3.6089 13.114 7.147 14.038 7.8624 1.48 1.1448-0.68472 2.89-18.048 14.551-10.851 7.2875-19.982 13.25-20.289 13.25s-6.1361-4.6658-12.952-10.368zm152.76 9.6184c-0.25494-0.4125 0.57553-0.75 1.8455-0.75s2.1004 0.3375 1.8455 0.75-1.0854 0.75-1.8455 0.75-1.5906-0.3375-1.8455-0.75zm171.9-0.15674c-0.30822-0.49871 0.34022-0.67122 1.441-0.38337 2.335 0.61061 2.6302 1.2901 0.5604 1.2901-0.79254 0-1.6932-0.40803-2.0014-0.90674zm138.84-1.9013c-2.145-1.5444-10.763-7.4563-19.15-13.138s-15.25-10.625-15.25-10.987c0-0.36155 6.1169-3.9651 13.593-8.0079l13.593-7.3505-4.6662-2.2489c-9.8087-4.7274-14.574-12.392-15.307-24.624-2.0515-34.196 39.989-44.469 49.407-12.072 4.3884 15.095-3.2757 32.727-16.267 37.425l-3.2862 1.1883 14.717 8.2898c8.0943 4.5594 15.167 8.494 15.717 8.7435 1.7301 0.78504-25.956 25.589-28.562 25.589-0.35088 0-2.393-1.2636-4.538-2.808zm-301.4-1.6216c0-0.275 0.9-0.98167 2-1.5704s2-0.84537 2-0.57037-0.9 0.98167-2 1.5704-2 0.84537-2 0.57037zm141.44-8.1255c-1.864-1.4934-1.8518-1.5118 0.30887-0.46481 1.2375 0.59969 2.25 1.2995 2.25 1.5552 0 0.76522-0.51861 0.54424-2.5589-1.0904zm41.559 1.1255c0-0.275 0.9-0.98167 2-1.5704s2-0.84537 2-0.57037-0.9 0.98167-2 1.5704-2 0.84537-2 0.57037zm-368.47-19.544c-3.2513-3.2856-5.7122-6.1119-5.4687-6.2806 0.24355-0.16874 3.1048 2.5195 6.3583 5.9738 7.5129 7.9767 6.907 8.1856-0.88962 0.30679zm530.86-3.7131c1.0385-1.2542 1.4932-2.747 1.0662-3.5-0.60158-1.0607-0.48376-1.0707 0.61315-0.0519 1.1325 1.0518 0.95554 1.6327-1.0662 3.5-2.3701 2.1891-2.3838 2.1903-0.61315 0.0519zm-396.1-48.813c8e-3 -2.75 0.20172-3.7563 0.43157-2.2363 0.22986 1.5201 0.22371 3.7701-0.0136 5-0.23741 1.23-0.42547-0.014-0.41797-2.7637zm257.99 0.5c0-2.475 0.19502-3.4875 0.43337-2.25 0.23836 1.2375 0.23836 3.2625 0 4.5-0.23835 1.2375-0.43337 0.225-0.43337-2.25zm-268.87-29.25-1.905-2.25 2.25 1.905c1.2375 1.0477 2.25 2.0602 2.25 2.25 0 0.8002-0.80479 0.2094-2.595-1.905z" fill="#5494b8"/><path d="m-461.85-688.85c0-1.0801 3.8364-11.288 8.5254-22.685 34.665-84.253 50.476-147.29 41.769-166.53-6.6466-14.684-28.678-14.398-50.702 0.65974l-3.9081 2.672-2.5919-2.0153c-11.731-9.1216-26.475-15.981-36.164-16.826-7.8196-0.68183-10.51 0.44396-12.512 5.2356-2.8761 6.8835-1.8355 12.608 13.914 76.545 4.5513 18.476 8.1015 34.114 7.8894 34.75-0.26048 0.78143-3.9221 1.1568-11.283 1.1568-10.506 0-10.913 0.0809-11.332 2.25-0.23877 1.2375-1.1314 11.025-1.9835 21.75-0.85216 10.725-2.3283 29.076-3.2802 40.779l-1.7308 21.279-24.109-0.55842-3.1461-19c-9.7924-59.139-10.875-65.355-11.494-65.974-0.27405-0.27405-5.3045-0.54564-11.179-0.60354-10.246-0.10098-10.681-0.19316-10.681-2.2659 0-3.487 11.405-57.668 17.504-83.157 5.7103-23.863 2.5236-33.308-10.271-30.44-7.0015 1.5691-15.974 6.214-23.045 11.93l-6.3116 5.1019-5.6884-4.8392c-27.311-23.234-34.092-3.4753-22.049 64.248 7.2989 41.043 23.414 96.251 33.51 114.8 2.6495 4.8682 1.6231 5.3923-8.7747 4.48-5.1376-0.45073-9.875-1.3735-10.528-2.0507-2.7444-2.8473-15.679-44.689-23.565-76.231-8.9366-35.744-8.5938-34.969-10.621-24-2.9762 16.104-4.4834 50.366-3.2992 75 0.8675 18.046 0.37923 20.913-3.1092 18.26-3.9734-3.0225-7.944-64.327-5.8499-90.319 1.9188-23.816 2.4794-78.488 0.8802-85.841-1.6423-7.5511-3.959-9.2874-7.138-5.3499-1.2212 1.5125-2.5409 2.75-2.9327 2.75-1.0851 0-0.84958-31.004 0.28082-36.964 1.405-7.4086 7.1182-19.065 14.19-28.952 5.4518-7.6217 5.9267-8.6736 4.7527-10.526-4.8671-7.6778-6.3592-15.543-5.6073-29.558 1.6492-30.741 16.672-52.973 25.345-37.51 8.3432 14.874 3.2869 52.705-8.7692 65.611l-3.0029 3.2147 3.7987 3.9117c4.3863 4.5168 26.555 23.91 33.527 29.331l4.7286 3.6759 62.094-41.667-3.8084-1.7924c-20.305-9.5564-25.267-41.58-9.7163-62.704 6.7901-9.2237 12.762-11.114 20.689-12.068 5.9684-0.7178 13.718 2 17.288 5.1335 19.401 17.035 13.732 57.284-9.72 69.007l-4.7166 2.3577 34.204 20.499c18.812 11.275 34.66 20.499 35.217 20.499 0.55697 0 10.688-5.2579 22.513-11.684 30.032-16.321 35.169-19.106 46.245-25.069 5.3596-2.8857 9.7471-5.523 9.75-5.8608 3e-3 -0.33778-1.9825-1.3733-4.412-2.3011-23.922-9.1358-30.159-46.195-11.249-66.835 4.3686-5.7015 16.037-10.396 24.94-9.75 9.6036 0.6966 18.639 5.6056 25.104 14.29 14.785 19.861 6.5986 54.061-14.907 62.274-2.4595 0.93931-4.4632 1.9842-4.4526 2.322 0.0106 0.33778 9.5731 5.7518 21.25 12.031 25.239 13.572 40.721 21.998 50.128 27.279 3.7935 2.1298 7.1909 3.7445 7.5498 3.5881s16.01-9.4947 34.781-20.752l34.128-20.468-5.1781-2.7774c-23.037-12.357-28.318-51.847-9.1815-68.65 4.0774-4.3151 8.5037-7.0459 14.103-7.1372 8.9655-0.034 14.011 3.4806 19.808 9.2775 19.139 19.139 16.917 56.641-3.9549 66.745-2.4525 1.1872-4.2084 2.5641-3.9021 3.0597s11.895 8.4746 25.753 17.731c13.858 9.2565 27.311 18.331 29.896 20.165l4.6997 3.3353 3.8003-2.852c6.4406-4.8334 20.357-16.844 29.778-25.7l8.9772-8.439-4.1172-4.6774c-13.778-15.653-16.496-62.49-3.9737-68.491 15.552-7.4537 29.518 51.755 16.516 70.015l-2.0824 2.9245 2.8517 4.0934c16.152 23.186 18.465 29.817 18.242 52.312-0.1739 17.576-0.66257 20.023-3.2191 16.121-2.3852-3.6403-4.4792-3.2745-6.4622 1.1288-2.2154 4.9195-2.366 50.716-0.28185 85.729 1.5432 25.927 0.65342 54.312-2.5014 79.795-1.5085 12.184-2.4025 14.726-5.1802 14.726-1.3214 0-1.4233-2.7716-0.81771-22.25 0.96741-31.119-2.3292-78.75-5.4504-78.75-0.42435 0-2.8803 8.6625-5.4577 19.25-7.6509 31.428-24.223 86.786-26.731 89.295-0.69463 0.69462-18.919 1.9931-19.854 1.4147-0.63559-0.39281 0.34887-3.9978 2.6066-9.5453 21.785-53.527 36.19-116.63 36.76-161.04 0.22417-17.47-2.1615-22.649-10.434-22.649-4.0835 0-9.9863 3.4442-18.572 10.836l-4.2046 3.6202-5.6877-4.6332c-9.5536-7.7823-16.928-11.45-26.157-13.009-3.8301-0.64709-4.5102-0.4314-7.2368 2.2952-4.8779 4.8779-4.3516 10.57 4.869 52.663 10.929 49.891 12.978 59.886 12.456 60.75-0.24909 0.4125-5.346 0.75-11.326 0.75-12.182 0-11.336-0.57167-12.58 8.5-0.37698 2.75-0.89359 5.9-1.148 7s-2.6652 15.725-5.3572 32.5-5.2385 32.075-5.6589 34l-0.76437 3.5-24.096 0.55831-3.3013-41.779c-1.8157-22.979-3.4675-42.342-3.6707-43.029-0.26642-0.90161-3.4275-1.25-11.342-1.25-6.0348 0-11.186-0.34497-11.446-0.76661-0.26058-0.42163 3.9724-18.685 9.4066-40.586 15.684-63.208 16.507-69.163 10.306-74.516-6.4001-5.5242-23.769-0.56944-41.871 11.944l-7.384 5.1046-3.3009-2.4795c-18.626-13.991-43.739-15.39-50.249-2.8002-10.37 20.054 5.9921 84.973 44.858 177.98 3.0743 7.3565 5.5896 13.769 5.5896 14.25s-8.0013 0.87457-17.781 0.87457h-17.781l-1.0802-2.75c-3.5242-8.9724-43.803-106.16-44.792-108.07-1.3849-2.6844-0.65441-4.0268-9.4259 17.322-2.7117 6.6-7.1644 17.4-9.8948 24-2.7304 6.6-9.1188 22.125-14.196 34.5s-10.517 25.312-12.088 28.75l-2.8562 6.25h-17.053c-16.281 0-17.053-0.0888-17.053-1.9638z" fill="#1676a5"/></g></g><g transform="matrix(12.661 0 0 12.661 -28485 -8876.3)"><g transform="matrix(1.3333 0 0 -1.3333 2301.3 644.69)"><path d="m-3.8689 0c1.169 0 2.123 0.95 2.123 2.118 0 1.078-0.812 1.967-1.852 2.101v-1.025c0.482-0.121 0.84-0.556 0.84-1.076 0-0.612-0.5-1.111-1.111-1.111-0.613 0-1.111 0.499-1.111 1.111 0 0.517 0.355 0.949 0.831 1.072v1.028c-1.036-0.138-1.838-1.025-1.838-2.1 0-1.168 0.949-2.118 2.118-2.118m-9.91-0.022598c1.169 0 2.119 0.952 2.119 2.12 0 1.075-0.807 1.968-1.849 2.101v-1.026c0.481-0.122 0.842-0.555 0.842-1.075 0-0.613-0.499-1.111-1.112-1.111s-1.115 0.498-1.115 1.111c0 0.517 0.358 0.948 0.835 1.072v1.028c-1.037-0.138-1.839-1.025-1.839-2.1 0-1.168 0.949-2.12 2.119-2.12m13.998 3.3588h0.335c0.204 0 0.352-0.017 0.457-0.097 0.134-0.095 0.19-0.208 0.19-0.377 0-0.174-0.056-0.282-0.19-0.379-0.097-0.072-0.227-0.101-0.457-0.101h-0.335zm5e-3 -1.742h0.242l0.826-1.511 8e-3 -0.018h1.174l-1.022 1.667c0.223 0.081 0.763 0.36 0.763 1.165 0 0.392-0.164 0.727-0.454 0.942-0.267 0.194-0.616 0.289-1.074 0.289h-1.471v-4.063h1.008zm-9.8927 0.31179c0 0.288-0.01 0.608-0.015 0.778l1.687-2.602 0.012-0.017h1.012v4.064h-0.985v-1.847c0-0.283 8e-3 -0.581 0.015-0.746l-1.647 2.576-8e-3 0.017h-1.058v-4.064h0.987zm-8.3324-0.698c-0.188-0.179-0.472-0.279-0.809-0.279h-0.439v2.355h0.439c0.447 0 0.7-0.172 0.809-0.276 0.227-0.215 0.344-0.524 0.344-0.91 0-0.384-0.113-0.675-0.344-0.89m0.702-0.66c0.44 0.37 0.661 0.892 0.661 1.55 0 0.66-0.221 1.181-0.661 1.542-0.258 0.223-0.743 0.488-1.564 0.488h-1.388v-4.063h1.388c0.817 0 1.302 0.263 1.564 0.483" fill="#a4a6ab"/></g><g transform="matrix(1.3333 0 0 -1.3333 2320.5 649.58)"><path d="m0 0c0 1.078-0.811 1.966-1.852 2.1v-1.025c0.482-0.122 0.842-0.557 0.842-1.075 0-0.613-0.498-1.111-1.113-1.111-0.613 0-1.109 0.498-1.109 1.111 0 0.516 0.352 0.948 0.831 1.072v1.027c-1.036-0.137-1.84-1.024-1.84-2.099 0-1.17 0.952-2.119 2.118-2.119 1.17 0 2.123 0.949 2.123 2.119m-28.54 2.1086v-1.025c0.482-0.122 0.841-0.556 0.841-1.077 0-0.614-0.499-1.109-1.113-1.109-0.611 0-1.112 0.495-1.112 1.109 0 0.516 0.353 0.949 0.833 1.073v1.028c-1.037-0.139-1.841-1.027-1.841-2.101 0-1.169 0.953-2.119 2.12-2.119 1.169 0 2.122 0.95 2.122 2.119 0 1.078-0.81 1.967-1.85 2.102m-0.828-2.1018c0-0.305 0.249-0.555 0.556-0.555 0.309 0 0.556 0.25 0.556 0.555 0 0.307-0.247 0.557-0.556 0.557-0.307 0-0.556-0.25-0.556-0.557m33.029 1.9982v-1.847c0-0.283 9e-3 -0.58 0.015-0.746l-1.644 2.577-0.012 0.016h-1.055v-4.063h0.984v1.839c0 0.289-8e-3 0.608-0.011 0.779l1.684-2.601 9e-3 -0.017h1.016v4.063zm-9.8899-4.0638h1.01v4.063h-1.01zm-0.80062 4.0638h-3.069v-0.811h1.03v-3.252h1.008v3.252h1.031zm-5.551-0.7928h0.329c0.198 0 0.325-0.03 0.429-0.105 0.114-0.082 0.176-0.223 0.176-0.392 0-0.174-0.062-0.316-0.174-0.401-0.108-0.072-0.233-0.102-0.431-0.102h-0.329zm1.527-1.483c0.29 0.243 0.428 0.567 0.428 0.986 0 0.422-0.138 0.742-0.428 0.981-0.251 0.21-0.599 0.308-1.066 0.308h-1.464v-4.063h1.009v1.476h0.455c0.467 0 0.815 0.1 1.066 0.312m-3.5231-0.9582h-1.705v0.855h1.563v0.816h-1.563v0.745h1.655v0.818h-2.66v-4.063h2.71zm-10.34 0.9816c0 0.288-8e-3 0.606-0.012 0.777l1.687-2.602 0.01-0.018h1.013v4.064h-0.983v-1.845c0-0.283 8e-3 -0.583 0.013-0.748l-1.646 2.578-0.01 0.015h-1.056v-4.064h0.984zm5.6448 1.4428c0.45 0 0.797-0.233 0.891-0.306l0.058-0.042v1.018l-0.022 0.01c-0.291 0.127-0.618 0.193-0.974 0.193-1.244 0-2.111-0.854-2.111-2.077 0-1.222 0.867-2.075 2.111-2.075 0.363 0 0.692 0.069 0.976 0.206l0.02 8e-3v1.017l-0.058-0.041c-0.242-0.181-0.551-0.276-0.891-0.276-0.572 0-1.149 0.364-1.149 1.179 0 0.711 0.461 1.186 1.149 1.186m-13.25 0.8538c-1.243 0-2.111-0.855-2.111-2.076 0-1.223 0.868-2.077 2.111-2.077 0.365 0 0.694 0.071 0.974 0.205l0.022 0.01v1.018l-0.057-0.042c-0.245-0.181-0.553-0.277-0.889-0.277-0.574 0-1.152 0.364-1.152 1.18 0 0.71 0.463 1.187 1.152 1.187 0.445 0 0.794-0.233 0.889-0.306l0.057-0.042v1.018l-0.022 0.01c-0.289 0.127-0.615 0.192-0.974 0.192" fill="#a4a6ab"/></g><g transform="matrix(1.3333 0 0 -1.3333 2301.4 654.49)"><path d="m0 0v-1.025c0.481-0.123 0.84-0.555 0.84-1.075 0-0.613-0.5-1.112-1.113-1.112-0.611 0-1.113 0.499-1.113 1.112 0 0.516 0.356 0.948 0.837 1.073v1.026c-1.039-0.138-1.843-1.026-1.843-2.099 0-1.168 0.95-2.12 2.119-2.12 1.17 0 2.121 0.952 2.121 2.12 0 1.077-0.809 1.966-1.848 2.1m8.9441-0.075195-1.18-1.423v1.423h-1.003v-4.064h1.003v1.435l1.171-1.423 9e-3 -0.015 0.017 3e-3c6e-3 0 0.469 9e-3 0.796 9e-3 0.249 0 0.297-6e-3 0.303-9e-3l8e-3 -3e-3 0.028 3e-3 9e-3 0.02c0.015 0.027 0.024 0.051-1.728 2.032l1.774 2.012zm-5.1342-0.7938h0.332c0.21 0 0.353-0.016 0.46-0.097 0.134-0.093 0.188-0.205 0.188-0.377 0-0.174-0.054-0.283-0.188-0.379-0.112-0.084-0.264-0.1-0.46-0.1h-0.332zm1.996-0.441c0 0.394-0.164 0.731-0.457 0.944-0.263 0.196-0.616 0.29-1.069 0.29h-1.476v-4.064h1.01v1.529h0.241l0.835-1.529h1.175l-1.024 1.667c0.228 0.08 0.765 0.36 0.765 1.163m-10.394-1.3528-0.689 2.563-5e-3 0.024h-0.994l-0.689-2.587-0.661 2.562-8e-3 0.025h-1.053l1.171-4.038 9e-3 -0.026h0.995l0.734 2.643 0.73-2.643h0.998l1.164 4.019 0.012 0.045h-1.051zm-7.5738 1.777h1.031v-3.253h1.009v3.253h1.028v0.811h-3.068zm-2.3566-1.5691h1.563v0.817h-1.563v0.748h1.656v0.815h-2.656v-4.065h2.71v0.83h-1.71zm-3.1287 0.5327c0-0.282 9e-3 -0.581 0.012-0.747l-1.645 2.578-8e-3 0.016h-1.056v-4.064h0.985v1.841c0 0.288-0.01 0.606-0.015 0.777l1.686-2.602 0.01-0.016h1.016v4.064h-0.985z" fill="#a4a6ab"/></g></g></g></g></svg>
