<?xml version="1.0" encoding="utf-8"?>
<!-- Generator: Adobe Illustrator 22.0.1, SVG Export Plug-In . SVG Version: 6.00 Build 0)  -->
<svg version="1.1" xmlns="http://www.w3.org/2000/svg" xmlns:xlink="http://www.w3.org/1999/xlink" x="0px" y="0px"
	 width="349.503px" height="64.817px" viewBox="0 0 349.503 64.817" style="enable-background:new 0 0 349.503 64.817;"
	 xml:space="preserve">
<style type="text/css">
	.Arched_x0020_Green{fill:url(#SVGID_1_);stroke:#FFFFFF;stroke-width:0.25;stroke-miterlimit:1;}
	.st0{fill-rule:evenodd;clip-rule:evenodd;fill:#52585E;}
	.st1{fill-rule:evenodd;clip-rule:evenodd;fill:#2761AC;}
	.st2{fill-rule:evenodd;clip-rule:evenodd;}
	.st3{fill-rule:evenodd;clip-rule:evenodd;fill:#B6BCC5;}
	.st4{fill-rule:evenodd;clip-rule:evenodd;fill:#0073B9;}
	.st5{fill-rule:evenodd;clip-rule:evenodd;fill:#FFFFFF;}
	.st6{fill:#6A6A69;}
	.st7{fill:#0073B9;}
</style>
<linearGradient id="SVGID_1_" gradientUnits="userSpaceOnUse" x1="-865.7081" y1="767.9581" x2="-865.001" y2="767.2509">
	<stop  offset="0" style="stop-color:#17A237"/>
	<stop  offset="0.9831" style="stop-color:#22381C"/>
</linearGradient>
<g id="Layer_1">
</g>
<g id="Layer_3">
	<g>
		<path class="st0" d="M294.029,21.469c0.123,0.35,0.123,1.219,0,1.57C294.029,22.515,294.029,21.992,294.029,21.469z"/>
		<path class="st0" d="M328.632,36.79c0.276-0.125,1.069-0.125,1.345,0C329.528,36.79,329.08,36.79,328.632,36.79z"/>
		<path class="st1" d="M329.08,37.388c0.299,0,0.598,0,0.896,0C329.849,37.512,329.209,37.512,329.08,37.388z"/>
		<path class="st0" d="M315.478,38.584c0.124,0.202,0.124,0.919,0,1.121C315.478,39.331,315.478,38.958,315.478,38.584z"/>
		<path class="st0" d="M331.323,44.488c0.123,0.105,0.123,0.718,0,0.822C331.323,45.036,331.323,44.762,331.323,44.488z"/>
		<path class="st0" d="M303.669,44.712c0.275,0,0.549,0,0.822,0C304.387,44.837,303.774,44.837,303.669,44.712z"/>
		<path class="st0" d="M315.627,45.46c0.125,0.104,0.125,0.718,0,0.822C315.627,46.008,315.627,45.734,315.627,45.46z"/>
		<path class="st0" d="M292.16,48.524c0,0.323,0,0.648,0,0.971C292.035,49.342,292.035,48.677,292.16,48.524z"/>
		<path class="st2" d="M295.747,55.923c-0.115-1.73,1.445-4.411,3.288-3.139c0.354,0.243,0.472,0.674,0.599,1.27
			c0,0.325,0,0.648,0,0.972c-0.356,1.787-0.905,3.381-3.065,3.363c-0.499-0.322-0.783-0.862-0.822-1.644
			C295.747,56.471,295.747,56.197,295.747,55.923z"/>
		<path class="st3" d="M297.839,37.313c0.355,0.293,0.679,0.617,0.972,0.972C298.456,37.992,298.133,37.669,297.839,37.313z"/>
		<path class="st0" d="M289.843,52.261c-0.361-0.237-0.556-0.64-0.971-0.822C289.365,51.542,289.532,51.973,289.843,52.261z"/>
		<path class="st0" d="M333.192,20.871c0.267-0.33,0.565-0.629,0.896-0.896C333.82,20.305,333.521,20.603,333.192,20.871z"/>
		<path class="st3" d="M332.145,21.843c0.292-0.356,0.617-0.679,0.971-0.972C332.823,21.226,332.5,21.55,332.145,21.843z"/>
		<path class="st0" d="M331.247,22.814c0.268-0.33,0.567-0.629,0.898-0.897C331.877,22.247,331.578,22.546,331.247,22.814z"/>
		<path class="st3" d="M325.268,25.729c0.429-0.493,0.828-1.016,1.345-1.42C326.157,24.773,325.766,25.304,325.268,25.729z"/>
		<path class="st0" d="M314.432,23.337c1.101,1.04,2.174,2.112,3.214,3.214C316.543,25.511,315.471,24.44,314.432,23.337z"/>
		<path class="st3" d="M303.744,12.276c0.306,0.243,0.58,0.516,0.822,0.822C304.261,12.855,303.987,12.581,303.744,12.276z"/>
		<path class="st0" d="M302.997,11.529c0.28,0.218,0.53,0.467,0.747,0.748C303.464,12.058,303.214,11.809,302.997,11.529z"/>
		<path class="st3" d="M302.175,10.707c0.305,0.242,0.579,0.517,0.822,0.822C302.691,11.286,302.418,11.012,302.175,10.707z"/>
		<path class="st4" d="M295.373,22.141c-1.615-1.322,0.472-4.427-0.747-5.979c-0.969-1.234-2.904-1.043-3.139-3.214
			c-0.115-1.049,0.115-2.405,0.373-3.737c0.255-1.307,0.283-2.745,1.345-2.765c0.867-0.017,1.347,1.056,1.869,1.42
			c0.712,0.497,1.492,0.808,2.167,1.271c1.735,1.19,4.933,3.615,4.933,6.503c0,1.286-0.839,2.54-1.57,3.288
			C299.253,20.312,297.403,21.234,295.373,22.141z"/>
		<path class="st4" d="M337.451,19.003c0.731-0.816,1.138-1.362,2.018-2.168c0.319-0.292,1.761-1.72,2.765-1.421
			c1.216,0.363,0.268,2.542-0.075,3.289c-1.019,2.222-2.512,3.289-3.588,5.381c-0.363,0.707-0.987,2.684-1.942,2.541
			c-0.924-0.137-0.581-1.787-0.897-2.989c-0.137-0.517-0.736-1.044-0.748-1.495c-0.018-0.733,0.623-1.1,0.898-1.57
			C336.435,20.08,336.959,19.557,337.451,19.003z"/>
		<path class="st0" d="M335.882,20.572c0.492-0.554,1.014-1.077,1.569-1.569C336.959,19.557,336.435,20.08,335.882,20.572z"/>
		<path class="st4" d="M299.932,21.618c0.022-1.514,1.752-1.543,2.392-2.467c0.403-0.582,0.266-1.207,0.971-1.569
			c2.122,0.053,2.993,2.191,3.737,3.662c0.806,1.592,1.744,3.214,2.691,4.634c1.954,2.93,4.48,5.608,4.857,9.866
			c-1.603-0.121-2.383-1.711-3.139-2.841c-0.778-1.162-1.601-2.273-2.616-3.288c-0.996-0.995-2.132-2.026-2.84-3.139
			c-1.109-1.739-1.94-4.26-4.41-4.633C300.905,21.741,300.37,22.041,299.932,21.618z"/>
		<path class="st0" d="M288.497,28.27c0.281,0.218,0.53,0.467,0.748,0.747C288.964,28.8,288.716,28.55,288.497,28.27z"/>
		<path class="st4" d="M291.487,26.775c0.679,0.328,1.613,0.611,1.943,1.495c0.33,0.883,0.206,3.085-0.523,3.288
			c-1.219,0.339-1.645-1.469-2.393-1.868C292.098,29.782,292.495,27.592,291.487,26.775z"/>
		<path class="st0" d="M324.073,35.744c0.243-0.306,0.518-0.58,0.823-0.822C324.652,35.227,324.378,35.501,324.073,35.744z"/>
		<path class="st0" d="M326.464,33.054c0.642-0.704,1.315-1.377,2.019-2.019C327.841,31.74,327.169,32.412,326.464,33.054z"/>
		<path class="st0" d="M329.528,30.064c0.268-0.33,0.567-0.629,0.898-0.897C330.158,29.497,329.859,29.796,329.528,30.064z"/>
		<path class="st4" d="M324.073,35.744c-0.446,0.309-0.942,0.94-1.719,0.672c-0.018-0.748,0.516-1.461,0.971-2.093
			c1.289-1.785,2.847-3.57,4.336-5.306c1.375-1.605,2.872-3.445,4.334-5.306c0.352-0.448,1.016-1.618,1.644-1.57
			c0.874,0.067,0.469,0.979,0.673,1.719c0.224,0.814,1.016,0.751,1.047,1.495c0.046,1.11-1.568,1.45-2.467,1.943
			c-1.012,0.555-1.731,1.327-2.465,1.868c-0.331,0.268-0.629,0.567-0.898,0.897c-0.392,0.279-0.653,0.692-1.046,0.971
			c-0.704,0.642-1.377,1.314-2.019,2.019c-0.526,0.619-1.04,1.25-1.568,1.868C324.59,35.165,324.316,35.438,324.073,35.744z"/>
		<path class="st4" d="M313.908,40.901c-0.025,0-0.05,0-0.075,0c-1.785,1.623-4.348,0.432-6.427,0
			c-1.111-0.231-2.285-0.307-2.766-1.047c-0.018-0.444,0.464-0.549,0.449-1.046c-0.028-0.979-1.787-1.638-2.616-2.093
			c-2.105-1.156-4.316-1.803-6.576-2.84c-0.984-0.451-2.435-1.228-1.645-2.616c1.397,0.187,2.488,1.053,3.662,1.644
			c2.322,1.167,4.97,1.994,7.698,2.765c1.396,0.396,2.875,0.631,4.485,0.897c0.417,0.48,0.865,0.928,1.345,1.345
			c0.152,0.022,0.146,0.202,0.299,0.224c0.292,0.355,0.617,0.679,0.971,0.971C313.124,39.693,313.616,40.196,313.908,40.901z"/>
		<path class="st0" d="M308.378,30.662c0.281,0.218,0.53,0.467,0.748,0.747C308.845,31.191,308.595,30.942,308.378,30.662z"/>
		<path class="st4" d="M304.043,30.737c0.481-0.608,0.231-1.529-0.224-2.167c-0.758-1.065-3.081-2.471-4.483-2.317
			c-1.653,0.181-2.032,2.225-3.514,2.467c-1.195,0.195-2.225-0.683-2.092-1.944c0.135-1.294,1.341-3.038,2.092-3.737
			c1.346-1.252,3.057-0.671,4.784,0c0.853,0.332,1.827,0.683,2.391,1.196c2.196,1.992,3.161,4.485,5.381,6.428
			c0.218,0.28,0.467,0.529,0.748,0.747c0.792,1.277,1.796,2.341,3.064,3.288c0.367,0.275,1.051,0.618,0.822,1.196
			c-0.191-0.003-0.092,0.055-0.074,0.15c-0.46-0.606-1.856-0.972-2.541-0.299c-2.383-0.652-4.685-1.777-7.325-2.243
			c-0.829-0.146-1.79-0.102-2.541-0.598c-0.017-0.36,0.931-0.485,0.673-0.597c-0.088,0.011-0.133-0.017-0.15-0.075
			c1.971,0.238,4.089,0.015,4.484-1.569C305.195,30.201,304.552,30.702,304.043,30.737z"/>
		<path class="st0" d="M332.07,29.017c0.243-0.305,0.517-0.579,0.822-0.822C332.649,28.5,332.375,28.775,332.07,29.017z"/>
		<path class="st4" d="M332.892,28.195c0.792-1.179,3.178-1.986,3.588,0c0.305,1.474-0.532,4.257-1.645,4.186
			c-0.563-0.038-0.679-0.729-1.271-1.047c-1.766-0.95-4.047,0.222-3.96,2.317c-1.591,0.86-0.425,2.19,1.569,1.944
			c0.369,0.594-0.053,1.468-1.196,1.196c-0.276-0.125-1.069-0.125-1.345,0c-1.324-0.075-3.369,0.049-3.513-0.972
			c-0.076-0.531,0.887-1.572,1.345-2.092c1.57-1.789,4.081-3.301,5.606-4.709C332.375,28.775,332.649,28.5,332.892,28.195z"/>
		<path class="st5" d="M331.173,35.595c-1.994,0.247-3.16-1.084-1.569-1.944c0.797-0.279,1.469-1.421,2.541-1.196
			C333.52,32.745,332.969,35.944,331.173,35.595z"/>
		<path class="st0" d="M334.91,33.801c0.491-0.554,1.015-1.077,1.569-1.57C335.987,32.786,335.464,33.309,334.91,33.801z"/>
		<path class="st0" d="M336.927,34.623c0.218-0.28,0.468-0.53,0.748-0.747C337.457,34.155,337.208,34.404,336.927,34.623z"/>
		<path class="st5" d="M336.479,32.231c1.014-0.932,1.576-3.418,3.438-2.765c0.228,1.875-1.275,3.239-2.242,4.411
			c-0.28,0.217-0.53,0.466-0.748,0.747c-0.413,0.551-1.756,0.965-2.541,0.448c-0.031-0.629,0.288-0.907,0.524-1.27
			C335.464,33.309,335.987,32.786,336.479,32.231z"/>
		<path class="st3" d="M311.442,37.911c-0.481-0.417-0.928-0.865-1.345-1.345C310.576,36.983,311.024,37.432,311.442,37.911z"/>
		<path class="st3" d="M311.741,38.136c0.355,0.293,0.679,0.617,0.971,0.971C312.357,38.814,312.033,38.491,311.741,38.136z"/>
		<path class="st4" d="M302.548,38.659c-1.6,0.474-2.788-0.671-3.737-1.419c-1.002-0.793-2.23-1.561-2.765-2.691
			c1.437,0.137,2.688,0.935,3.886,1.494C301.051,36.564,302.42,37.323,302.548,38.659z"/>
		<path class="st4" d="M329.977,37.388c1.825,0.338,1.936-2.512,3.662-2.018c1.095,0.313,0.042,1.059-0.447,1.495
			c-0.948,0.841-2.261,3.49-5.008,3.214c-0.274-0.028-0.764-0.269-1.046-0.224c-0.938,0.148-1.776,2.861-3.288,3.065
			c-1.363,0.183-1.488-0.668-1.495-1.868c0,0.053,0.21-1.433-0.076-1.719c-0.159-0.161-0.52,0.023-0.597-0.149
			c1.815,0.468,3.976-1.522,2.167-2.392c0-0.025,0-0.05,0-0.075c1.843-0.164,3.192,0.785,5.231,0.673
			C329.209,37.512,329.849,37.512,329.977,37.388z"/>
		<path class="st4" d="M295.224,42.545c1.132-1.409,3.637-2.671,6.353-2.691c2.447-0.018,3.782,1.905,6.054,2.317
			c0.751,0.136,1.667-0.112,1.868,0.523c0.254,0.8-1,1.345-1.643,1.57c-1.181,0.412-2.194,0.346-3.365,0.447
			c-0.274,0-0.547,0-0.822,0c-0.047-0.015-0.357,0.02-0.448,0c-0.933-0.199-4.076-2.748-4.634-0.597
			c-0.189,0.724,0.525,2.178,0.822,2.615c0.648,0.953,2.225,1.279,2.467,2.242c0.106,0.342,0.147,0.75,0.299,1.046
			c-0.046,1.176-0.57,1.872-1.272,2.392c0.064-3.997-7.319-4.582-8.37-1.196c-0.166-0.531-0.407-0.987-0.373-1.719
			c0-0.324,0-0.648,0-0.971c0.097-2.369,1.045-3.888,2.242-5.157C294.707,43.124,294.981,42.851,295.224,42.545z"/>
		<path class="st0" d="M294.402,43.367c0.242-0.305,0.516-0.579,0.822-0.822C294.981,42.851,294.707,43.124,294.402,43.367z"/>
		<path class="st2" d="M287.003,11.753c0.073-3.23-1.496-4.171-2.691-6.427c-0.529-1-2.32-4.119-0.896-5.007
			c1.671-1.044,4.436,0.767,5.605,1.345c4.934,2.44,9.645,5.86,13.155,9.044c0.243,0.305,0.516,0.579,0.822,0.822
			c0.218,0.28,0.467,0.529,0.747,0.748c0.243,0.305,0.517,0.579,0.822,0.822c5.87,6.586,10.557,14.356,11.586,25.784
			c0.612-0.458,1.731-1.058,2.54-1.57c1.38-3.505,1.18-7.248-0.971-10.014c-1.109-1.426-2.454-3.212-3.887-3.737
			c-0.268-0.098-2.515,0.207-2.093-1.046c0.399-1.184,2.574,0.702,2.691,0.822c1.039,1.103,2.111,2.174,3.214,3.214
			c1.877,1.844,2.746,5.822,2.017,9.417c-0.096,0.476-0.41,1.128-0.073,1.271c0.818,0.346,1.194-1.307,1.419-1.944
			c1.263-3.582,2.043-7.356,4.26-9.566c0.498-0.425,0.888-0.956,1.345-1.42c0.368-0.456,1.105-1.303,1.869-0.673
			c-0.231,1.066-1.288,0.981-1.944,1.42c-3.328,2.232-4.156,7.071-5.455,11.061c2.868-4.954,6.469-9.177,10.164-13.304
			c0.331-0.268,0.629-0.567,0.898-0.897c0-0.024,0-0.05,0-0.074c0.355-0.293,0.678-0.617,0.971-0.972c0.025,0,0.05,0,0.076,0
			c0.33-0.268,0.628-0.566,0.896-0.896c3.181-2.77,6.294-5.562,10.838-7.101c0.646-0.218,4.227-1.435,4.559-0.074
			c0.18,0.74-1.003,1.668-1.495,2.242c-1.782,2.076-3.682,4.335-4.933,6.353c-0.4,0.646-0.36,1.852-0.524,2.616
			c-1.209,5.642-3.509,10.509-8.146,12.781c-1.057,2.157-2.543,3.884-5.68,3.961c0.092,2.024,2.229,2.006,2.616,3.736
			c0,0.274,0,0.549,0,0.822c-0.065,0.782-0.264,1.43-0.448,2.093c0.29,0.987,0.559,2.408,0.075,3.438
			c-0.423,0.897-1.29,1.195-1.869,1.793c0.371,1.78-0.901,2.527-1.868,3.214c0.507,1.985-0.099,4.962-2.467,3.811
			c-2.157,1.704-3.95,3.773-6.427,5.157c-0.473,0-0.947,0-1.421,0c-1.001-2.122-0.082-4.76,0.897-6.203
			c1.084-1.595,2.585-3.077,2.317-5.755c-0.462-0.437-0.814-1.063-1.645-0.971c-0.849,0.093-1.096,1.283-1.419,2.167
			c-0.369,1.007-0.778,1.875-1.121,2.542c-0.971,1.882-1.874,3.293-3.588,3.736c-0.555-0.316-0.394-1.349-0.523-2.092
			c0-0.523,0-1.047,0-1.57c0.053-0.87,0.144-1.764,0.299-2.616c0.147-0.807,0.475-1.649,0.373-2.242
			c-4.786-1.12-6.955,2.111-7.174,6.277c-0.069,1.31,0.1,3.384-0.224,4.485c-0.31,1.051-1.56,1.762-2.467,1.868
			c-0.95,0.112-1.713-0.181-2.316-0.523c-0.273-0.155-0.529-0.553-0.822-0.673c-0.502-0.208-0.938-0.121-1.271-0.299
			c-1.166-0.623-2.153-1.774-2.99-2.391c-0.517-0.58-1.065-1.128-1.645-1.644c-0.458-0.547-1.263,0.021-2.167,0.15
			c-1.683,0.239-5.32-0.158-5.083-1.57c0.302-1.782,4.46-1.548,4.559-3.439c0.04-0.763-0.729-1.267-1.046-1.794
			c-0.31-0.288-0.477-0.718-0.971-0.822c-0.708-0.657-1.152-1.522-1.121-2.392c0.028-0.835,0.831-1.159,0.896-1.719
			c0.038-0.323-0.193-0.806-0.224-1.122c-0.069-0.713-0.008-1.446,0.299-1.793c0.319-0.363,1.201-0.215,1.57-0.747
			c0.306-0.443,0.069-1.595,0.673-2.167c0.586-0.556,1.913-0.374,2.839-0.448c2.143-0.173,5.812-1.173,5.008-2.766
			c-0.292-0.354-0.617-0.679-0.972-0.972c-2.973-2.891-6.513-5.699-9.715-8.445c-1.735-1.487-2.655-3.778-2.318-6.577
			c0.307-2.543,1.147-5.084,1.197-7.923c0.171-0.128,0.026-0.57,0.075-0.822c0-0.348,0-0.697,0-1.046
			C287.03,12.273,287.174,11.856,287.003,11.753z M285.433,5.549c1.069,1.671,1.674,2.813,2.616,4.858
			c0.33,0.716,0.945,2.271,1.644,2.168c0.613-0.091,0.797-1.668,0.898-2.691c0.2-2.054,0.218-4.795-0.524-5.829
			c-0.59-0.822-3.521-2.167-4.933-1.794C283.628,2.659,284.834,4.613,285.433,5.549z M300.605,18.927
			c0.731-0.748,1.57-2.002,1.57-3.288c0-2.887-3.198-5.313-4.933-6.503c-0.675-0.463-1.456-0.774-2.167-1.271
			c-0.522-0.364-1.002-1.437-1.869-1.42c-1.062,0.02-1.091,1.458-1.345,2.765c-0.259,1.331-0.488,2.688-0.373,3.737
			c0.235,2.171,2.169,1.98,3.139,3.214c1.219,1.552-0.867,4.657,0.747,5.979C297.403,21.234,299.253,20.312,300.605,18.927z
			 M348.363,14.444c0.215-0.135,0.371-0.328,0.448-0.599c-2.681-1.436-5.014,1.08-5.754,3.214c-0.283,0.813-0.626,1.915-0.15,2.691
			c0.301,0.173,0.66-0.235,0.896-0.374c0.381-0.317,0.729-0.666,1.047-1.046c0.629-0.741,1.282-1.459,1.868-2.242
			C347.298,15.571,347.845,15.023,348.363,14.444z M294.029,21.469c-0.171-2.713-1.519-6.964-3.962-6.801
			c-1.27,0.085-1.744,1.428-1.943,2.765c-0.125,0.301-0.125,1.119,0,1.42c0.093,1.932,1.303,2.65,2.391,3.961
			c0.72,0.866,1.341,2.331,2.542,2.093c0.687-0.136,0.93-0.988,0.973-1.868C294.152,22.688,294.152,21.819,294.029,21.469z
			 M335.882,20.572c-0.274,0.47-0.916,0.837-0.898,1.57c0.012,0.451,0.611,0.978,0.748,1.495c0.316,1.202-0.027,2.852,0.897,2.989
			c0.956,0.143,1.58-1.834,1.942-2.541c1.076-2.092,2.569-3.159,3.588-5.381c0.342-0.747,1.291-2.926,0.075-3.289
			c-1.004-0.299-2.446,1.128-2.765,1.421c-0.88,0.805-1.287,1.351-2.018,2.168C336.896,19.495,336.374,20.018,335.882,20.572z
			 M301.577,21.843c2.47,0.373,3.301,2.894,4.41,4.633c0.708,1.113,1.844,2.144,2.84,3.139c1.014,1.015,1.837,2.126,2.616,3.288
			c0.756,1.13,1.536,2.719,3.139,2.841c-0.377-4.258-2.903-6.935-4.857-9.866c-0.947-1.42-1.885-3.042-2.691-4.634
			c-0.745-1.471-1.615-3.609-3.737-3.662c-0.706,0.362-0.568,0.987-0.971,1.569c-0.64,0.924-2.37,0.952-2.392,2.467
			C300.37,22.041,300.905,21.741,301.577,21.843z M291.487,26.775c-0.896-1.198-1.779-2.31-2.616-3.513
			c-0.435-0.624-0.808-1.501-1.495-1.419c-0.385,0.045-0.693,0.542-0.748,1.046c-0.206,1.897,0.959,4.291,1.869,5.381
			c0.218,0.28,0.467,0.53,0.748,0.747c0.365,0.284,0.737,0.557,1.269,0.673c0.748,0.399,1.173,2.207,2.393,1.868
			c0.729-0.203,0.853-2.405,0.523-3.288C293.1,27.386,292.166,27.103,291.487,26.775z M330.426,29.167
			c0.735-0.541,1.454-1.313,2.465-1.868c0.899-0.493,2.513-0.833,2.467-1.943c-0.03-0.744-0.823-0.681-1.047-1.495
			c-0.204-0.741,0.201-1.652-0.673-1.719c-0.627-0.049-1.292,1.122-1.644,1.57c-1.463,1.862-2.959,3.702-4.334,5.306
			c-1.489,1.736-3.047,3.521-4.336,5.306c-0.456,0.632-0.989,1.345-0.971,2.093c0.776,0.268,1.272-0.363,1.719-0.672
			c0.305-0.243,0.58-0.518,0.823-0.822c0.528-0.618,1.043-1.25,1.568-1.868c0.705-0.642,1.377-1.314,2.019-2.019
			c0.393-0.28,0.654-0.692,1.046-0.971C329.859,29.796,330.158,29.497,330.426,29.167z M308.378,30.662
			c-2.22-1.942-3.185-4.435-5.381-6.428c-0.564-0.512-1.538-0.864-2.391-1.196c-1.727-0.671-3.438-1.252-4.784,0
			c-0.751,0.699-1.957,2.443-2.092,3.737c-0.133,1.261,0.897,2.139,2.092,1.944c1.481-0.242,1.861-2.286,3.514-2.467
			c1.403-0.154,3.725,1.252,4.483,2.317c0.456,0.638,0.706,1.56,0.224,2.167c-2.442,0.263-1.615-3.34-4.111-2.99
			c-0.65,0.091-1.487,0.938-1.644,1.793c-0.367,2.004,0.999,2.686,2.765,2.691c0.016,0.059,0.062,0.087,0.15,0.075
			c0.258,0.112-0.689,0.237-0.673,0.597c0.751,0.495,1.712,0.452,2.541,0.598c2.64,0.466,4.942,1.591,7.325,2.243
			c-0.247,0.105-0.51,0.498-0.299,0.822c-1.609-0.266-3.088-0.501-4.485-0.897c-2.728-0.772-5.376-1.598-7.698-2.765
			c-1.174-0.591-2.265-1.457-3.662-1.644c-0.791,1.388,0.66,2.165,1.645,2.616c2.26,1.037,4.471,1.684,6.576,2.84
			c0.829,0.455,2.588,1.114,2.616,2.093c0.015,0.497-0.466,0.602-0.449,1.046c0.481,0.739,1.655,0.815,2.766,1.047
			c2.079,0.432,4.642,1.623,6.427,0c0.025,0,0.05,0,0.075,0c0.613,1.122,1.888,0.141,1.57-1.196c0.124-0.202,0.124-0.919,0-1.121
			c-0.025-1.669-1.279-2.108-2.541-2.541c-0.018-0.095-0.117-0.153,0.074-0.15c0.229-0.578-0.454-0.921-0.822-1.196
			c-1.268-0.947-2.272-2.01-3.064-3.288C308.907,31.129,308.659,30.88,308.378,30.662z M339.17,27.374
			c0.614-0.541,1.534-0.701,2.017-1.495c0.681-1.12,0.692-3.304-1.121-2.766c-0.891,0.266-1.52,1.471-2.019,2.392
			c-0.587,1.09-1.264,2.067-1.046,3.288C338.328,29.217,338.551,27.919,339.17,27.374z M329.604,33.651
			c-0.087-2.094,2.194-3.267,3.96-2.317c0.592,0.317,0.708,1.009,1.271,1.047c1.113,0.071,1.949-2.712,1.645-4.186
			c-0.41-1.986-2.796-1.179-3.588,0c-0.305,0.243-0.579,0.517-0.822,0.822c-1.525,1.409-4.036,2.92-5.606,4.709
			c-0.458,0.52-1.42,1.561-1.345,2.092c0.144,1.021,2.188,0.897,3.513,0.972c0.448,0,0.896,0,1.345,0
			c1.143,0.272,1.565-0.601,1.196-1.196c1.796,0.349,2.348-2.85,0.972-3.139C331.073,32.23,330.401,33.372,329.604,33.651z
			 M337.676,33.876c0.966-1.171,2.469-2.535,2.242-4.411c-1.861-0.652-2.424,1.834-3.438,2.765c-0.554,0.493-1.078,1.016-1.569,1.57
			c-0.235,0.363-0.555,0.642-0.524,1.27c0.785,0.517,2.128,0.103,2.541-0.448C337.208,34.404,337.457,34.155,337.676,33.876z
			 M299.932,36.043c-1.198-0.559-2.449-1.357-3.886-1.494c0.536,1.13,1.763,1.898,2.765,2.691c0.95,0.748,2.137,1.894,3.737,1.419
			C302.42,37.323,301.051,36.564,299.932,36.043z M321.681,39.182c0.077,0.172,0.438-0.012,0.597,0.149
			c0.285,0.286,0.076,1.772,0.076,1.719c0.007,1.2,0.131,2.052,1.495,1.868c1.512-0.204,2.35-2.917,3.288-3.065
			c0.282-0.045,0.772,0.197,1.046,0.224c2.747,0.276,4.06-2.372,5.008-3.214c0.489-0.435,1.542-1.181,0.447-1.495
			c-1.726-0.494-1.837,2.356-3.662,2.018c-0.299,0-0.597,0-0.896,0c-2.039,0.113-3.388-0.836-5.231-0.673
			C322.045,36.226,319.884,38.533,321.681,39.182z M304.491,44.712c1.171-0.102,2.183-0.035,3.365-0.447
			c0.643-0.226,1.897-0.77,1.643-1.57c-0.201-0.635-1.117-0.387-1.868-0.523c-2.273-0.413-3.608-2.335-6.054-2.317
			c-2.715,0.02-5.221,1.283-6.353,2.691c-0.305,0.243-0.58,0.516-0.822,0.822c-1.198,1.269-2.145,2.788-2.242,5.157
			c-0.125,0.153-0.125,0.817,0,0.971c-0.034,0.732,0.207,1.188,0.373,1.719c-0.047,0.276-0.203,0.444-0.15,0.822
			c-0.125,0.574-0.125,1.668,0,2.242c-0.059,1.102,0.716,1.321,1.121,2.167c0.147,0.307,0.16,0.685,0.299,0.971
			c0.934,1.925,3.034,3.189,4.784,4.41c0.849,0.594,2.432,1.899,3.288,0.674c0.162,0.012,0.034-0.266,0.075-0.375
			c1.209-0.584,1.55-2.037,1.644-3.737c0.125-0.177,0.125-0.868,0-1.046c0.04-0.538-0.096-0.9-0.299-1.196
			c-0.51,0.062-0.935,0.21-1.345,0.373c0.526-1.642-1.822-1.973-1.047-4.111c0.702-0.52,1.226-1.216,1.272-2.392
			c0.19,0.507,0.378,1.016,1.046,1.047c-0.569,0.981-2.471,1.325-1.794,3.065c2.006,0.946,2.925-1.025,3.737-2.018
			c0.521-0.638,1.046-1.215,1.719-1.645c1.465-0.936,3.451-1.048,4.858-2.018c1.425,1.946,3.662-0.41,3.886-2.168
			c0.125-0.104,0.125-0.718,0-0.822c-0.209-1.49-1.017-3.183-2.391-3.139c-1.085,0.035-1.66,1.165-2.316,1.869
			c-2.659,0.78-6.058,0.818-7.325,2.99c-1.295-0.125-1.903,0.438-1.719,1.794c-0.242-0.964-1.819-1.289-2.467-2.242
			c-0.297-0.437-1.011-1.891-0.822-2.615c0.558-2.151,3.7,0.398,4.634,0.597c0.09,0.02,0.401-0.015,0.448,0
			C303.774,44.837,304.387,44.837,304.491,44.712z M327.362,52.336c1.574-0.086,0.909-2.679,1.495-4.111
			c0.451-1.104,1.475-1.762,1.27-3.139c-0.163-1.099-1.991-2.674-3.139-2.616c-0.778,0.04-1.229,0.782-2.018,1.047
			c-0.931,0.313-1.768-0.049-2.616,0.599c-0.307,1.506,1.208,2.59,2.542,2.391c0.637-0.095,1.004-0.842,1.568-0.822
			c0.423,0.015,0.81,0.482,0.823,0.822c0.063,1.787-4.969,2.399-3.065,5.531c-0.379,0.842-0.743,1.698-1.121,2.54
			c0.156-0.977-0.46-1.696-1.196-2.017c-1.167,0.971-0.702,2.429-1.195,3.662c-0.357,0.891-1.111,1.64-1.57,2.467
			c-0.512,0.921-1.045,1.908-1.27,2.989c-1.239,0.524-0.861,2.217,0.597,2.168c0.421-0.014,1.137-0.545,1.57-0.821
			c0.507-0.325,0.97-0.748,1.345-1.047c0.933-0.744,1.934-1.293,2.616-2.168c0.694-0.889,1.059-2.662,1.569-3.737
			C326.198,54.745,327.844,53.764,327.362,52.336z M323.4,48.748c-0.065-0.755-1.712-1.45-2.69-1.27
			c-0.381,0.069-0.702,0.43-1.047,0.597c-0.415,0.202-0.909,0.222-1.046,0.599c0.354,1.227,2.759,1.134,1.794,2.989
			c0.245,0.32,1.25,0.32,1.494,0C321.41,49.787,323.511,50.036,323.4,48.748z"/>
		<path class="st4" d="M311.741,48.45c-1.407,0.97-3.393,1.082-4.858,2.018c-0.673,0.43-1.198,1.007-1.719,1.645
			c-0.811,0.993-1.731,2.963-3.737,2.018c-0.677-1.74,1.225-2.084,1.794-3.065c2.062,0.127,2.291-3.88,0.373-3.886
			c1.267-2.172,4.666-2.21,7.325-2.99C310.261,45.572,311.074,47.463,311.741,48.45z"/>
		<path class="st4" d="M317.87,61.678c0.225-1.081,0.758-2.068,1.27-2.989c0.459-0.826,1.213-1.576,1.57-2.467
			c0.493-1.233,0.028-2.691,1.195-3.662c0.736,0.321,1.352,1.04,1.196,2.017c-0.861,0.873-2.163,0.995-2.391,2.242
			c-0.126,0.685,0.335,1.21,0.224,2.093c-0.189,1.502-2.216,1.743-2.99,2.765C317.919,61.678,317.894,61.678,317.87,61.678z"/>
		<path class="st4" d="M324.222,52.037c-1.905-3.132,3.128-3.745,3.065-5.531c-0.013-0.34-0.4-0.807-0.823-0.822
			c-0.564-0.02-0.931,0.727-1.568,0.822c-1.334,0.199-2.848-0.884-2.542-2.391c0.848-0.648,1.685-0.286,2.616-0.599
			c0.789-0.265,1.24-1.007,2.018-1.047c1.148-0.058,2.976,1.518,3.139,2.616c0.206,1.377-0.819,2.035-1.27,3.139
			c-0.586,1.432,0.079,4.024-1.495,4.111C327.097,50.719,324.751,50.545,324.222,52.037z"/>
		<path class="st4" d="M321.905,51.663c-0.245,0.32-1.25,0.32-1.494,0c0.964-1.855-1.44-1.762-1.794-2.989
			c0.137-0.376,0.631-0.397,1.046-0.599c0.346-0.167,0.666-0.528,1.047-0.597c0.978-0.18,2.625,0.515,2.69,1.27
			C323.511,50.036,321.41,49.787,321.905,51.663z"/>
		<path class="st5" d="M288.497,28.27c-0.91-1.091-2.074-3.484-1.869-5.381c0.055-0.504,0.363-1.001,0.748-1.046
			c0.687-0.082,1.06,0.795,1.495,1.419c0.836,1.202,1.72,2.315,2.616,3.513c1.008,0.817,0.611,3.007-0.973,2.915
			c-0.532-0.115-0.905-0.389-1.269-0.673C289.028,28.737,288.778,28.488,288.497,28.27z"/>
		<path class="st5" d="M285.134,2.261c1.412-0.373,4.343,0.972,4.933,1.794c0.742,1.034,0.724,3.776,0.524,5.829
			c-0.101,1.023-0.284,2.6-0.898,2.691c-0.699,0.103-1.314-1.452-1.644-2.168c-0.942-2.046-1.547-3.187-2.616-4.858
			C284.834,4.613,283.628,2.659,285.134,2.261z"/>
		<path class="st5" d="M343.803,19.376c-0.236,0.139-0.596,0.547-0.896,0.374c-0.477-0.776-0.133-1.878,0.15-2.691
			c0.741-2.134,3.073-4.649,5.754-3.214c-0.078,0.271-0.233,0.464-0.448,0.599c-0.579,0.516-1.128,1.065-1.645,1.644
			c-0.586,0.783-1.239,1.501-1.868,2.242C344.471,18.647,344.121,18.996,343.803,19.376z"/>
		<path class="st5" d="M288.124,17.433c0.199-1.337,0.673-2.68,1.943-2.765c2.442-0.163,3.79,4.088,3.962,6.801
			c0,0.523,0,1.047,0,1.57c-0.042,0.88-0.286,1.732-0.973,1.868c-1.2,0.239-1.821-1.227-2.542-2.093
			c-1.087-1.311-2.298-2.029-2.391-3.961C288.124,18.38,288.124,17.907,288.124,17.433z"/>
		<path class="st5" d="M337.002,28.793c-0.218-1.221,0.459-2.198,1.046-3.288c0.498-0.921,1.128-2.126,2.019-2.392
			c1.813-0.538,1.802,1.646,1.121,2.766c-0.483,0.794-1.403,0.954-2.017,1.495C338.551,27.919,338.328,29.217,337.002,28.793z"/>
		<path class="st5" d="M301.054,32.231c-1.767-0.005-3.133-0.687-2.765-2.691c0.157-0.856,0.994-1.702,1.644-1.793
			c2.496-0.35,1.669,3.253,4.111,2.99c0.509-0.035,1.152-0.536,1.495-0.075C305.143,32.246,303.025,32.469,301.054,32.231z"/>
		<path class="st5" d="M310.396,35.744c0.685-0.673,2.081-0.307,2.541,0.299c1.262,0.433,2.516,0.871,2.541,2.541
			c0,0.374,0,0.747,0,1.121c0.319,1.337-0.957,2.318-1.57,1.196c-0.292-0.705-0.785-1.208-1.196-1.794
			c-0.293-0.354-0.616-0.679-0.971-0.971c-0.152-0.022-0.147-0.202-0.299-0.224c-0.418-0.479-0.867-0.928-1.345-1.345
			C309.886,36.242,310.15,35.849,310.396,35.744z"/>
		<path class="st5" d="M321.681,39.182c-1.798-0.65,0.363-2.956,2.167-2.467c0,0.025,0,0.05,0,0.075
			C325.657,37.66,323.496,39.65,321.681,39.182z"/>
		<path class="st5" d="M310.919,44.189c0.656-0.704,1.231-1.834,2.316-1.869c1.374-0.044,2.182,1.649,2.391,3.139
			c0,0.274,0,0.548,0,0.822c-0.224,1.758-2.461,4.113-3.886,2.168C311.074,47.463,310.261,45.572,310.919,44.189z"/>
		<path class="st5" d="M301.876,48.973c-0.185-1.355,0.423-1.918,1.719-1.794c1.918,0.006,1.689,4.013-0.373,3.886
			c-0.668-0.03-0.856-0.54-1.046-1.047C302.023,49.723,301.982,49.315,301.876,48.973z"/>
		<path class="st5" d="M292.533,51.215c1.051-3.387,8.434-2.802,8.37,1.196c-0.775,2.137,1.573,2.469,1.047,4.111
			c-0.29,0.308-0.773,0.423-1.197,0.598c-0.532,0.189-0.927,0.518-1.12,1.046c-0.235,0.411,0.214,0.781,0.299,1.121
			c0.418,0.48,0.866,0.929,1.345,1.346c0.314,0.408,0.595,0.849,0.673,1.495c-0.041,0.109,0.087,0.387-0.075,0.375
			c-0.856,1.225-2.439-0.08-3.288-0.674c-1.75-1.221-3.85-2.485-4.784-4.41c-0.139-0.286-0.152-0.664-0.299-0.971
			c-0.405-0.846-1.181-1.065-1.121-2.167c0-0.748,0-1.495,0-2.242C292.33,51.659,292.486,51.491,292.533,51.215z M299.633,54.054
			c-0.126-0.596-0.245-1.027-0.599-1.27c-1.843-1.272-3.403,1.409-3.288,3.139c-0.125,0.104-0.125,0.718,0,0.822
			c0.039,0.782,0.322,1.322,0.822,1.644c2.16,0.018,2.709-1.576,3.065-3.363C299.757,54.873,299.757,54.208,299.633,54.054z"/>
		<path class="st3" d="M292.383,52.037c0,0.747,0,1.494,0,2.242C292.259,53.705,292.259,52.611,292.383,52.037z"/>
		<g>
			<path class="st6" d="M5.811,45.446c-0.337-0.063-0.547-0.084-0.779-0.084c-0.8,0-1.326,0.316-1.495,0.884
				c-0.084,0.337-0.105,0.589-0.105,1.6v0.863h2.105v0.695H3.433v9.389h-0.8v-9.389H0.885v-0.695h1.747v-1.052
				c0-2.232,0.569-2.968,2.316-2.968c0.274,0,0.484,0.021,0.863,0.042V45.446z"/>
			<path class="st6" d="M12.105,49.424h-0.253c-1.179,0-2.147,0.463-2.821,1.369c-0.631,0.863-0.821,1.663-0.821,3.642v4.358H7.39
				V48.708h0.8v2.653c0.695-1.937,1.832-2.737,3.916-2.737V49.424z"/>
			<path class="st6" d="M21.199,55.34c-0.421,2.4-2,3.747-4.358,3.747c-2.737,0-4.547-2.105-4.547-5.263
				c0-3.179,1.874-5.41,4.568-5.41c2.8,0,4.463,2.042,4.442,5.452h-8.189c0.042,2.842,1.432,4.526,3.789,4.526
				c1.852,0,3.115-1.116,3.495-3.052H21.199z M20.484,53.171c-0.105-2.526-1.473-4.063-3.6-4.063c-2.147,0-3.494,1.453-3.747,4.063
				H20.484z"/>
			<path class="st6" d="M31.598,55.34c-0.421,2.4-2,3.747-4.358,3.747c-2.737,0-4.547-2.105-4.547-5.263
				c0-3.179,1.874-5.41,4.568-5.41c2.8,0,4.463,2.042,4.442,5.452h-8.189c0.042,2.842,1.432,4.526,3.789,4.526
				c1.852,0,3.115-1.116,3.495-3.052H31.598z M30.882,53.171c-0.105-2.526-1.474-4.063-3.6-4.063c-2.147,0-3.494,1.453-3.747,4.063
				H30.882z"/>
			<path class="st6" d="M41.764,49.403h-2.189v6.821c0,1.6,0.252,1.958,1.326,1.958c0.232,0,0.484-0.042,0.863-0.126v0.716
				c-0.4,0.063-0.631,0.084-0.968,0.084c-0.926,0-1.516-0.274-1.81-0.821c-0.169-0.379-0.211-0.695-0.211-2.126v-6.505h-1.832
				v-0.695h1.832v-3.158h0.8v3.158h2.189V49.403z"/>
			<path class="st6" d="M44.29,49.803c0,0.105,0,0.294-0.021,0.547c0,0.147,0,0.358-0.021,0.631
				c0.695-1.726,1.895-2.568,3.705-2.568c2.252,0,3.537,1.41,3.537,3.915v6.463h-0.8v-6.336c0-2.189-1.011-3.347-2.926-3.347
				c-2.232,0-3.474,1.621-3.474,4.568v5.116h-0.8V44.751h0.8V49.803z"/>
			<path class="st6" d="M55.109,46.73h-0.8v-1.979h0.8V46.73z M55.109,58.792h-0.8V48.708h0.8V58.792z"/>
			<path class="st6" d="M58.835,50.898c0.695-1.663,1.895-2.484,3.642-2.484c1.284,0,2.295,0.442,2.947,1.284
				c0.505,0.652,0.653,1.284,0.653,2.652v6.442h-0.8V52.54c0-1.032-0.084-1.537-0.316-2.021c-0.421-0.884-1.411-1.411-2.652-1.411
				c-1.221,0-2.337,0.632-2.905,1.642c-0.4,0.716-0.547,1.474-0.547,2.8v5.242h-0.821V48.708h0.8V50.898z"/>
			<path class="st6" d="M72.601,52.456l4.736,6.336h-1.01l-4.337-5.768l-2.274,1.937v3.831h-0.8V44.751h0.8v8.147v1.158
				c0.19-0.168,0.358-0.316,0.442-0.4c0.169-0.148,0.295-0.274,0.358-0.316l5.431-4.632h1.074L72.601,52.456z"/>
			<path class="st6" d="M79.674,46.73h-0.8v-1.979h0.8V46.73z M79.674,58.792h-0.8V48.708h0.8V58.792z"/>
			<path class="st6" d="M83.399,50.898c0.695-1.663,1.895-2.484,3.642-2.484c1.284,0,2.295,0.442,2.947,1.284
				c0.505,0.652,0.653,1.284,0.653,2.652v6.442h-0.8V52.54c0-1.032-0.084-1.537-0.316-2.021c-0.421-0.884-1.411-1.411-2.652-1.411
				c-1.221,0-2.337,0.632-2.905,1.642c-0.4,0.716-0.547,1.474-0.547,2.8v5.242h-0.821V48.708h0.8V50.898z"/>
			<path class="st6" d="M101.607,57.971c0,3.242-1.347,4.673-4.399,4.673c-2.442,0-3.852-1.095-4-3.116h0.8
				c0.211,1.642,1.242,2.421,3.221,2.421c2.505,0,3.579-1.179,3.579-3.958v-2.105c-0.737,1.726-1.937,2.547-3.789,2.547
				c-2.589,0-4.273-1.916-4.273-4.884c0-3.095,1.747-5.136,4.421-5.136c1.726,0,3.073,0.947,3.663,2.61v-2.316h0.779V57.971z
				 M93.545,53.403c0,2.652,1.368,4.337,3.537,4.337c2.252,0,3.705-1.684,3.705-4.295c0-2.631-1.41-4.337-3.621-4.337
				C94.997,49.108,93.545,50.814,93.545,53.403z"/>
			<path class="st6" d="M112.784,45.446c-0.337-0.063-0.547-0.084-0.779-0.084c-0.8,0-1.326,0.316-1.495,0.884
				c-0.084,0.337-0.106,0.589-0.106,1.6v0.863h2.105v0.695h-2.105v9.389h-0.8v-9.389h-1.747v-0.695h1.747v-1.052
				c0-2.232,0.568-2.968,2.316-2.968c0.274,0,0.484,0.021,0.863,0.042V45.446z"/>
			<path class="st6" d="M122.402,53.803c0,3.221-1.81,5.284-4.652,5.284c-2.884,0-4.695-2.084-4.695-5.389
				c0-3.137,1.895-5.284,4.673-5.284C120.571,48.414,122.402,50.519,122.402,53.803z M113.855,53.677
				c0,2.905,1.495,4.715,3.895,4.715c2.337,0,3.852-1.81,3.852-4.589c0-2.842-1.515-4.695-3.873-4.695
				C115.434,49.108,113.855,50.982,113.855,53.677z"/>
			<path class="st6" d="M129.348,49.424h-0.253c-1.179,0-2.147,0.463-2.821,1.369c-0.631,0.863-0.821,1.663-0.821,3.642v4.358
				h-0.821V48.708h0.8v2.653c0.695-1.937,1.832-2.737,3.916-2.737V49.424z"/>
			<path class="st6" d="M138.462,49.403h-2.189v6.821c0,1.6,0.252,1.958,1.326,1.958c0.232,0,0.484-0.042,0.863-0.126v0.716
				c-0.4,0.063-0.632,0.084-0.968,0.084c-0.926,0-1.516-0.274-1.81-0.821c-0.168-0.379-0.211-0.695-0.211-2.126v-6.505h-1.832
				v-0.695h1.832v-3.158h0.8v3.158h2.189V49.403z"/>
			<path class="st6" d="M140.987,49.803c0,0.105,0,0.294-0.021,0.547c0,0.147,0,0.358-0.021,0.631
				c0.695-1.726,1.895-2.568,3.705-2.568c2.252,0,3.537,1.41,3.537,3.915v6.463h-0.8v-6.336c0-2.189-1.011-3.347-2.926-3.347
				c-2.232,0-3.474,1.621-3.474,4.568v5.116h-0.8V44.751h0.8V49.803z"/>
			<path class="st6" d="M159.196,55.34c-0.421,2.4-2,3.747-4.358,3.747c-2.737,0-4.547-2.105-4.547-5.263
				c0-3.179,1.874-5.41,4.568-5.41c2.8,0,4.463,2.042,4.442,5.452h-8.189c0.042,2.842,1.432,4.526,3.789,4.526
				c1.852,0,3.115-1.116,3.495-3.052H159.196z M158.48,53.171c-0.105-2.526-1.473-4.063-3.6-4.063c-2.147,0-3.494,1.453-3.747,4.063
				H158.48z"/>
			<path class="st6" d="M175.657,58.792h-0.905l-2.4-7.663c-0.147-0.484-0.232-0.8-0.4-1.495c-0.21,0.758-0.316,1.095-0.421,1.474
				l-2.4,7.684h-0.926l-3.263-10.084h0.863l2.337,7.368c0.148,0.463,0.274,0.884,0.526,1.852c0.105-0.4,0.189-0.695,0.231-0.905
				c0.126-0.463,0.211-0.821,0.274-0.989l2.295-7.326h0.99l2.273,7.368c0.147,0.442,0.253,0.863,0.505,1.831
				c0.253-0.968,0.358-1.368,0.505-1.789l2.358-7.41h0.821L175.657,58.792z"/>
			<path class="st6" d="M188.813,53.803c0,3.221-1.81,5.284-4.652,5.284c-2.884,0-4.694-2.084-4.694-5.389
				c0-3.137,1.895-5.284,4.673-5.284C186.982,48.414,188.813,50.519,188.813,53.803z M180.266,53.677
				c0,2.905,1.495,4.715,3.894,4.715c2.337,0,3.853-1.81,3.853-4.589c0-2.842-1.515-4.695-3.873-4.695
				C181.845,49.108,180.266,50.982,180.266,53.677z"/>
			<path class="st6" d="M195.76,49.424h-0.253c-1.178,0-2.147,0.463-2.821,1.369c-0.632,0.863-0.821,1.663-0.821,3.642v4.358h-0.821
				V48.708h0.8v2.653c0.694-1.937,1.831-2.737,3.916-2.737V49.424z"/>
			<path class="st6" d="M197.885,58.792h-0.799V44.751h0.799V58.792z"/>
			<path class="st6" d="M209.189,58.792h-0.778v-2.463c-0.485,1.726-1.895,2.758-3.768,2.758c-2.842,0-4.568-2-4.568-5.284
				c0-3.305,1.769-5.389,4.547-5.389c1.79,0,3.032,0.842,3.769,2.61v-6.273h0.799V58.792z M200.875,53.782
				c0,2.884,1.432,4.61,3.81,4.61c2.274,0,3.726-1.789,3.726-4.631c0-2.863-1.452-4.653-3.79-4.653
				C202.327,49.108,200.875,50.919,200.875,53.782z"/>
		</g>
		<g>
			<path class="st7" d="M20.185,20.714c0,5.886-4.148,10.034-10.073,10.034C4.148,30.748,0,26.64,0,20.714
				c0-6.004,4.068-10.073,10.073-10.073C16.156,10.642,20.185,14.631,20.185,20.714z M6.36,20.675c0,3.516,1.343,5.491,3.753,5.491
				c2.37,0,3.713-2.015,3.713-5.491s-1.343-5.451-3.713-5.451C7.703,15.224,6.36,17.199,6.36,20.675z"/>
			<path class="st7" d="M28.836,13.367c1.422-1.896,3.16-2.726,5.688-2.726c4.898,0,8.256,4.147,8.256,10.191
				c0,6.004-3.239,9.915-8.137,9.915c-2.37,0-4.108-0.869-5.57-2.726v8.651h-6.281V11.155h6.044V13.367z M28.875,20.833
				c0,3.2,1.382,5.056,3.792,5.056c2.409,0,3.753-1.817,3.753-5.017c0-3.239-1.383-5.096-3.792-5.096
				C30.297,15.777,28.875,17.673,28.875,20.833z"/>
			<path class="st7" d="M64.268,24.388c-1.027,3.871-4.78,6.36-9.559,6.36c-6.281,0-10.428-3.95-10.428-9.994
				c0-5.925,4.266-10.112,10.31-10.112c6.123,0,10.034,4.227,10.034,10.823v0.672H50.442c0.079,2.726,1.698,4.385,4.306,4.385
				c1.738,0,2.686-0.553,3.634-2.133H64.268z M58.461,18.542c-0.276-2.37-1.698-3.674-3.95-3.674c-2.212,0-3.634,1.303-3.99,3.674
				H58.461z"/>
			<path class="st7" d="M73.234,13.683c1.541-2.093,3.555-3.041,6.241-3.041c2.37,0,4.464,0.987,5.57,2.568
				c0.869,1.224,1.145,2.568,1.145,5.175v11.851H79.91V19.411c0-2.607-0.829-3.634-2.883-3.634c-2.41,0-3.555,1.383-3.555,4.266
				v10.191H67.19V11.155h6.044V13.683z"/>
			<path d="M99.936,3.887c3.792,0,6.241,0.79,8.335,2.647c2.449,2.251,3.792,5.807,3.792,10.033c0,4.661-1.264,8.256-3.713,10.745
				c-2.094,2.133-4.345,2.923-8.216,2.923h-9.362V3.887H99.936z M93.261,28.062h6.281c3.713,0,5.57-0.632,7.229-2.409
				c1.936-2.054,2.805-4.898,2.805-8.928c0-6.992-3.318-10.665-9.639-10.665h-6.676V28.062z"/>
			<path d="M131.695,23.953c-0.869,4.424-3.753,6.834-8.177,6.834c-5.175,0-8.651-3.911-8.651-9.836
				c0-6.004,3.595-10.27,8.651-10.27c5.293,0,8.453,3.95,8.414,10.626h-14.694c0.079,4.78,2.409,7.545,6.281,7.545
				c3.2,0,5.175-1.62,5.965-4.898H131.695z M129.562,19.371c-0.197-4.148-2.528-6.755-6.083-6.755c-3.516,0-5.728,2.37-6.241,6.755
				H129.562z"/>
			<path d="M137.856,14.552c1.817-2.804,3.595-3.871,6.32-3.871c2.805,0,4.582,1.224,5.491,3.713
				c1.501-2.568,3.437-3.713,6.32-3.713c3.99,0,6.083,2.251,6.083,6.478v13.075h-2.331V17.791c0-3.595-1.303-5.096-4.385-5.096
				c-3.555,0-5.293,2.173-5.293,6.597v10.942h-2.331V17.831c0-3.595-1.264-5.135-4.187-5.135c-3.595,0-5.53,2.489-5.53,7.071v10.468
				h-2.331v-19h2.173V14.552z"/>
			<path d="M183.836,20.714c0,6.241-3.436,10.073-8.967,10.073c-5.53,0-9.046-3.911-9.046-10.073c0-6.044,3.555-10.033,9.006-10.033
				C180.32,10.681,183.836,14.592,183.836,20.714z M168.193,20.675c0,5.017,2.568,8.177,6.676,8.177
				c4.109,0,6.636-3.121,6.636-8.177c0-4.898-2.607-8.058-6.675-8.058C170.84,12.616,168.193,15.856,168.193,20.675z"/>
			<path d="M203.23,23.44c-0.632,4.622-3.634,7.347-7.979,7.347c-5.332,0-8.809-3.871-8.809-9.875
				c0-6.162,3.476-10.231,8.768-10.231c4.503,0,7.387,2.37,7.9,6.557h-2.37c-0.593-3.002-2.449-4.622-5.412-4.622
				c-3.989,0-6.556,3.16-6.556,8.138c0,4.858,2.488,8.098,6.241,8.098c3.278,0,5.412-1.935,5.885-5.412H203.23z"/>
			<path d="M216.187,13.288h-0.593c-1.936,0-3.673,0.75-4.858,2.133c-1.303,1.501-1.659,3.042-1.659,7.031v7.782h-2.331v-19h2.173
				v4.543c1.658-3.555,3.555-4.819,7.268-4.819V13.288z"/>
			<path d="M234.28,30.116c-0.593,0.197-1.146,0.277-1.856,0.277c-1.817,0-2.449-0.909-2.449-3.476
				c-1.698,2.686-3.91,3.871-7.19,3.871c-3.871,0-6.201-2.054-6.201-5.372c0-2.528,1.303-4.306,3.751-5.214
				c0.83-0.316,2.134-0.592,3.28-0.711l1.066-0.079l1.105-0.119l1.068-0.118c2.29-0.197,3.002-0.79,3.002-2.41
				c0-2.884-1.541-4.148-5.056-4.148c-3.16,0-4.78,1.422-5.095,4.464h-2.252c0.198-4.068,2.963-6.399,7.624-6.399
				c2.529,0,4.622,0.711,5.846,1.935c0.948,0.988,1.185,1.936,1.185,4.899v5.372c0,0,0,0.83,0,1.936
				c0.04,2.765,0.04,2.765,0.198,3.121c0.158,0.316,0.514,0.514,1.027,0.514c0.355,0,0.553-0.039,0.948-0.158V30.116z
				 M229.856,19.845c-0.553,0.474-0.909,0.632-1.856,0.83c-0.83,0.158-0.554,0.119-3.358,0.514c-4.07,0.553-5.688,1.698-5.688,3.99
				c0,2.251,1.738,3.713,4.424,3.713c3.753,0,6.478-2.489,6.478-5.925V19.845z"/>
			<path d="M252.805,23.44c-0.632,4.622-3.634,7.347-7.979,7.347c-5.333,0-8.809-3.871-8.809-9.875
				c0-6.162,3.476-10.231,8.768-10.231c4.504,0,7.387,2.37,7.9,6.557h-2.37c-0.593-3.002-2.449-4.622-5.412-4.622
				c-3.989,0-6.556,3.16-6.556,8.138c0,4.858,2.488,8.098,6.241,8.098c3.278,0,5.412-1.935,5.885-5.412H252.805z"/>
			<path d="M263.115,30.985c-1.066,2.844-1.541,3.871-2.093,4.701c-0.79,1.185-1.975,1.778-3.515,1.778
				c-0.553,0-1.027-0.039-1.541-0.119l-0.514-0.039v-2.054c0.79,0.198,1.185,0.237,1.659,0.237c1.422,0,2.409-0.869,3.081-2.765
				c0.315-0.909,0.553-1.541,0.671-1.699c0.237-0.395,0.356-0.75,0.315-0.909l-7.663-18.882h2.568l5.136,13.075
				c0.236,0.553,0.395,1.027,1.144,3.358c0.593-1.857,0.869-2.726,1.186-3.595l4.661-12.838h2.37L263.115,30.985z"/>
		</g>
	</g>
</g>
<g id="Layer_2">
</g>
</svg>
