<?xml version="1.0" encoding="UTF-8" standalone="no"?>
<svg
   xmlns:dc="http://purl.org/dc/elements/1.1/"
   xmlns:cc="http://creativecommons.org/ns#"
   xmlns:rdf="http://www.w3.org/1999/02/22-rdf-syntax-ns#"
   xmlns:svg="http://www.w3.org/2000/svg"
   xmlns="http://www.w3.org/2000/svg"
   id="svg5677"
   version="1.1"
   viewBox="0 0 72.43222 83.314461"
   height="83.314461mm"
   width="72.43222mm">
  <defs
     id="defs5671" />
  <metadata
     id="metadata5674">
    <rdf:RDF>
      <cc:Work
         rdf:about="">
        <dc:format>image/svg+xml</dc:format>
        <dc:type
           rdf:resource="http://purl.org/dc/dcmitype/StillImage" />
        <dc:title></dc:title>
      </cc:Work>
    </rdf:RDF>
  </metadata>
  <g
     transform="translate(-121.84205,-113.53358)"
     id="layer1">
    <path
       style="fill:#0eb6cb;fill-opacity:1;fill-rule:nonzero;stroke:none;stroke-width:0.07182281"
       d="m 121.84205,113.53358 v 72.43223 h 10.81746 v 10.88223 l 11.14322,-10.88223 h 50.47154 v -72.43223 z"
       id="use4922" />
    <path
       id="use4924"
       style="fill:#ffffff;fill-opacity:1;fill-rule:nonzero;stroke:none;stroke-width:0.07182281"
       d="m 148.18071,152.26977 c 0.51993,0.1275 0.519,0.13547 0.53192,-0.40343 -0.0259,-0.30581 -0.0368,-0.61357 -0.0777,-0.91639 -0.10456,-0.75406 -0.28088,-1.48714 -0.77891,-2.09277 -0.61166,-0.7451 -1.53199,-0.78788 -2.17948,-0.0777 -0.7012,0.768 -0.75499,1.69034 -0.5498,2.65758 0.0348,0.16139 0.16139,0.14645 0.26993,0.17137 0.92837,0.22109 1.85769,0.43627 2.78405,0.66135 m -2.2411,-6.99929 c 0.29686,-0.17523 0.56978,-0.38044 0.77094,-0.66132 0.0957,-0.13354 0.18733,-0.20328 0.35864,-0.11859 -0.0538,-0.40537 -0.10358,-0.77597 -0.15343,-1.15943 -0.40939,0.0956 -0.8078,0.18823 -1.20719,0.28088 -0.0658,0.0148 -0.15046,0.0101 -0.15544,0.1066 -0.0198,0.46813 -0.0896,0.93729 -0.003,1.40349 0.0448,0.24103 0.19026,0.26495 0.38851,0.14837 m 4.67762,9.3657 c -0.19328,-0.67133 -0.21116,-0.6803 -0.89254,-0.47813 -0.0217,0.007 -0.0457,0.0148 -0.0657,0.0279 -0.39243,0.23911 -0.81375,0.19328 -1.23412,0.11658 -0.95128,-0.17331 -1.90452,-0.34166 -2.85078,-0.54084 -0.25305,-0.0528 -0.24902,0.0318 -0.23214,0.21916 0.0697,0.75498 0.45823,1.27299 1.15054,1.56278 0.65839,0.27594 1.36059,0.25697 2.0539,0.2929 0.61654,0.0119 1.22817,-0.0359 1.82984,-0.1723 0.53879,-0.12155 0.53689,-0.1275 0.35358,-0.65648 -0.0428,-0.12253 -0.0767,-0.24699 -0.11255,-0.37153 m 0.41206,-10.28618 c 0.27295,0.0677 0.54687,0.13346 0.81981,0.20127 0.13746,0.0348 0.20519,-0.008 0.17825,-0.18833 -0.0348,-0.28385 -0.0548,-0.6036 -0.25892,-0.86855 -0.11461,-0.14941 -0.26101,-0.24802 -0.45521,-0.1942 -0.23911,0.0657 -0.36163,0.24204 -0.41937,0.47712 -0.0458,0.18722 -0.0718,0.36952 0.0378,0.54081 0.0148,0.023 0.0637,0.023 0.0976,0.0319 m 19.64148,8.22867 c -0.60066,-0.31178 -1.25209,-0.47511 -1.90452,-0.63449 -1.32678,-0.3247 -2.69143,-0.4861 -3.99228,-0.92335 -0.77094,-0.25799 -1.53693,-0.53099 -2.20831,-1.0061 -0.47816,-0.33864 -0.68033,-0.79881 -0.57373,-1.3825 0.0159,-0.0877 0.10054,-0.16643 -0.01,-0.27797 0.0169,0.31078 -0.29787,0.50405 -0.23215,0.84169 0.1624,0.8328 0.2939,1.67248 0.46125,2.50417 0.15939,0.78288 0.33764,1.56287 0.65739,2.3209 0.22418,-0.83968 0.95324,-1.18536 1.57286,-1.57781 0.48409,-0.30581 1.07972,-0.47713 1.67339,-0.52094 0.24405,-0.019 0.57674,-0.0717 0.69524,0.21016 0.10761,0.26093 -0.13845,0.45119 -0.31572,0.62256 -0.3138,0.30382 -0.64749,0.59169 -0.88154,0.96523 -0.44927,0.71615 -0.1265,1.38856 0.70622,1.49111 0.52092,0.0647 1.03691,0.0111 1.54893,-0.0816 1.03891,-0.18733 2.05089,-0.46321 2.9165,-1.10069 0.70329,-0.51898 0.65445,-1.05085 -0.11353,-1.45032 m 10.57171,1.21359 c -1.49907,1.14853 -2.98524,2.31693 -4.68852,3.16458 -0.14644,0.0728 -0.29583,0.14343 -0.44831,0.20722 -1.19721,0.50305 -2.21726,0.0876 -2.74513,-1.11268 -0.21317,-0.48408 -0.26897,-0.99906 -0.31282,-1.56279 -0.72215,0.67234 -1.51106,1.19923 -2.37365,1.6087 -1.68834,0.80081 -3.4584,1.24706 -5.33903,1.16136 -0.69525,-0.0309 -1.34869,-0.21318 -1.92045,-0.63053 -0.0727,-0.0528 -0.22905,-0.0856 -0.0618,-0.21812 0.0767,-0.0608 -0.0199,-0.0976 -0.0538,-0.12549 -0.27287,-0.22516 -0.43029,-0.52494 -0.55576,-0.86863 -0.3148,0.29091 -0.59169,0.60764 -1.03095,0.66738 -0.0299,0.005 -0.0757,0.0329 -0.0807,0.0558 -0.0419,0.20714 -0.17531,0.38245 -0.3696,0.32673 -0.25497,-0.0757 -0.55081,-0.12647 -0.6255,-0.50004 -0.13446,-0.6704 -0.3257,-1.32778 -0.49204,-1.99019 -0.0697,-0.27496 -0.15444,-0.67831 -0.34764,-0.72515 -0.23114,-0.0568 -0.43632,0.29687 -0.61963,0.50904 -0.66534,0.77689 -1.31476,1.57183 -2.11862,2.2153 -0.96917,0.77496 -2.04097,1.31577 -3.31497,1.34466 -0.79091,0.018 -1.48021,-0.25204 -2.07483,-0.76996 -0.0917,-0.0797 -0.15148,-0.18026 -0.32377,-0.0877 -1.03288,0.55583 -2.17744,0.67342 -3.31597,0.79687 -1.011,0.10858 -2.02499,0.17632 -3.0311,-0.0647 -0.71612,-0.17229 -1.38945,-0.47114 -2.01504,-0.83968 -0.35861,-0.21021 -0.51297,-0.66736 -0.64648,-1.05788 -0.23408,-0.68231 -0.33663,-1.39846 -0.37248,-2.12064 -0.007,-0.13644 0.0198,-0.28485 -0.18632,-0.32176 -0.15139,-0.0269 -0.0966,-0.16936 -0.0906,-0.26688 0.0319,-0.62365 0.2381,-1.19939 0.49406,-1.75916 0.16433,-0.36256 0.16433,-0.36256 -0.24606,-0.36754 -0.64043,-0.007 -1.26998,0.11155 -1.90453,0.16635 -0.18724,0.0169 -0.19026,0.0896 -0.14938,0.25204 0.5847,2.29595 1.20224,4.58099 2.20935,6.73748 0.013,0.0289 0.007,0.0677 0.01,0.10263 -0.4413,-0.0777 -0.86167,-0.0259 -1.25513,0.17129 -0.68231,0.34267 -0.83772,0.23609 -1.32577,-0.32967 -0.98915,-1.14556 -1.31284,-2.555 -1.73019,-3.93552 -0.22114,-0.73215 -0.46514,-1.4583 -0.68435,-2.19045 -0.13745,-0.45816 -0.42727,-0.68131 -0.90344,-0.69123 -0.24599,-0.006 -0.68829,-0.43138 -0.71917,-0.66839 -0.019,-0.13644 0.10163,-0.14242 0.17833,-0.17431 0.2281,-0.0937 0.46318,-0.17137 0.69324,-0.26201 0.22114,-0.0876 0.2939,-0.23305 0.29088,-0.49205 -0.0319,-2.18138 0.84069,-3.86982 2.80892,-4.89474 0.78293,-0.40836 1.62563,-0.63748 2.52609,-0.34366 1.15152,0.3765 1.71233,1.45335 1.59768,2.69041 -0.022,0.23114 -0.16232,0.35661 -0.41232,0.33168 -0.20024,-0.0198 -0.40445,-0.009 -0.59865,-0.0508 -0.26697,-0.0578 -0.48609,-0.0618 -0.71721,0.14242 -0.24299,0.21418 -0.43828,0.1196 -0.49604,-0.20521 -0.0299,-0.17129 -0.0349,-0.3566 -0.007,-0.52789 0.0458,-0.27594 -0.0279,-0.51496 -0.16441,-0.74205 -0.23408,-0.38852 -0.4631,-0.41939 -0.73006,-0.0538 -0.58868,0.80386 -0.99513,1.6864 -1.00209,2.70838 -0.003,0.31774 -0.0827,0.71916 0.0767,0.9293 0.14446,0.19327 0.56777,0.0438 0.86756,0.0399 0.76798,-0.0111 1.53498,-0.0369 2.30199,-0.0558 0.15038,-0.003 0.33067,-0.0518 0.30575,0.2839 0.45722,-0.57574 0.86368,-1.07778 1.35271,-1.50109 0.93535,-0.80685 1.94834,-1.45928 3.21738,-1.58377 0.41233,-0.0399 0.82775,-0.0329 1.23018,0.0856 1.54692,0.45326 2.4623,1.51209 2.88166,3.03509 0.0956,0.35163 0.16433,0.7122 0.24701,1.07979 0.0188,-0.003 0.0587,0.004 0.0797,-0.013 2.00406,-1.65753 4.37079,-2.46832 6.87589,-2.95645 0.17732,-0.0338 0.33475,-0.0378 0.39947,-0.26395 0.0548,-0.18825 0.259,-0.13443 0.39841,-0.12149 0.73512,0.0677 1.46325,0.16531 2.13161,0.51696 0.10467,0.0558 0.18431,0.0886 0.15939,0.22712 -0.0269,0.14441 0.0209,0.27887 0.10062,0.41635 0.84966,-1.15348 2.06684,-1.65351 3.42955,-1.87063 0.78185,-0.12546 1.52099,0.0976 2.25407,0.33269 0.28099,0.0906 0.55885,0.1932 0.84373,0.26302 0.13946,0.0338 0.29583,0.24397 0.45418,-0.0249 0.0339,-0.0558 0.28493,0.0478 0.40939,0.14139 0.50803,0.3765 0.71623,0.91742 0.82778,1.51204 0.0279,0.14642 -0.0518,0.15145 -0.15637,0.15642 -0.33369,0.018 -0.65344,0.0378 -0.77497,0.4522 -0.0458,0.15643 -0.91043,0.38749 -1.07476,0.33671 -0.0947,-0.0309 -0.10959,-0.10358 -0.14645,-0.17827 -0.31279,-0.63556 -0.81576,-1.09379 -1.4075,-1.45735 -0.55277,-0.34066 -1.07577,-0.0826 -1.58276,0.13149 -0.21016,0.0877 -0.12849,0.28192 -0.0169,0.41738 0.20519,0.25202 0.48014,0.41736 0.76303,0.56682 1.03992,0.5488 2.15054,0.89942 3.28907,1.16237 1.34371,0.30977 2.68941,0.60865 4.04413,0.91445 0.0657,-0.52697 -0.007,-1.02002 -0.0349,-1.5131 -0.0109,-0.1733 -0.0876,-0.17632 -0.23006,-0.15835 -0.63254,0.0767 -1.27002,0.12546 -1.90055,0.21712 -0.30676,0.0448 -0.40042,-0.0408 -0.35955,-0.33864 0.0368,-0.26797 -0.14343,-0.58077 0.2281,-0.76801 0.12346,-0.0637 0.0408,-0.26093 -0.0148,-0.35954 -0.16735,-0.2929 -0.005,-0.33176 0.2291,-0.35862 0.59759,-0.0677 1.19427,-0.1534 1.79393,-0.21116 0.28183,-0.0279 0.43426,-0.11155 0.44918,-0.43231 0.0539,-1.16739 0.25201,-2.32685 0.21024,-3.49927 -0.008,-0.23207 0.0657,-0.3556 0.28985,-0.39042 0.3566,-0.0558 0.65439,-0.25397 0.96517,-0.4124 0.47014,-0.23802 0.87659,-0.0847 0.97915,0.43632 0.13647,0.69027 0.0697,1.39147 0.023,2.08478 -0.0418,0.6146 -0.0328,1.22918 -0.0587,1.84177 -0.008,0.21611 0.0667,0.26797 0.26294,0.2281 0.79888,-0.15643 1.59769,-0.31078 2.39657,-0.46117 0.52295,-0.0987 1.0469,-0.17833 1.58083,-0.19622 0.32671,-0.01 0.48509,0.19026 0.5837,0.42527 0.0946,0.22608 -0.10959,0.35861 -0.27395,0.48011 -0.0548,0.0399 -0.12351,0.0797 -0.1514,0.13748 -0.22709,0.45722 -0.65939,0.58473 -1.10167,0.67535 -0.64648,0.13345 -1.29489,0.25003 -1.91545,0.49207 -0.42137,0.16333 -0.87955,0.16634 -1.32384,0.21518 -0.16132,0.0188 -0.27586,0.0438 -0.25498,0.24498 0.0867,0.85066 -0.17632,1.6864 -0.11253,2.54003 0.0478,0.64444 -0.0548,1.2999 0.11253,1.93934 0.0299,0.11263 0.0667,0.22617 0.11658,0.33176 0.19817,0.42029 0.3984,0.50599 0.81676,0.29483 1.18732,-0.59764 2.22623,-1.37957 2.95437,-2.51712 0.15541,-0.24204 0.30784,-0.33869 0.55282,-0.13644 0.19026,0.15835 0.38153,0.14637 0.58168,0.0209 0.24406,-0.15335 0.40947,-0.0857 0.52597,0.17531 0.0667,0.15039 0.16534,0.28493 0.25403,0.42434 0.0946,0.14838 0.16232,0.29483 0.01,0.44622 -0.0467,0.0448 -0.0776,0.0976 -0.0227,0.15142 0.28585,0.27895 0.0518,0.41341 -0.14947,0.56674 M 144.26342,143.1273 c 0.56475,-0.0448 0.5638,-0.0657 0.60359,-0.62851 0.0111,-0.15341 0.0359,-0.30978 0.018,-0.45916 -0.0279,-0.22913 0.0657,-0.3238 0.27594,-0.40344 0.38647,-0.14745 0.47913,-0.10657 0.48207,0.30877 0.003,0.28289 -0.0101,0.56676 -0.0249,0.85066 -0.0101,0.17928 0.0319,0.26496 0.23807,0.21712 0.28789,-0.0657 0.57877,-0.12052 0.87156,-0.15735 0.16939,-0.022 0.14052,-0.12851 0.13354,-0.22812 -0.018,-0.248 -0.0299,-0.49707 -0.0697,-0.74107 -0.0578,-0.34568 0.18029,-0.35365 0.40437,-0.37455 0.22711,-0.0209 0.37557,0.0329 0.38655,0.31975 0.0249,0.65741 0.0846,1.31186 0.13539,2.03899 0.18933,-0.19328 0.18134,-0.39143 0.25506,-0.54888 0.0647,-0.13846 0.14343,-0.24397 0.28188,-0.29575 0.41334,-0.15444 1.11263,0.11649 1.30387,0.51093 0.10658,0.21913 0.19421,0.44826 0.30475,0.70324 0.28292,-0.60362 0.64749,-1.08376 1.20533,-1.39552 0.80283,-0.44826 1.60962,-0.14346 1.89355,0.73015 0.12052,0.37152 0.18327,0.75498 0.0926,1.15046 -0.0548,0.24201 -0.20916,0.33274 -0.43122,0.40441 -0.47419,0.1524 -0.9294,0.0478 -1.39158,-0.0418 -0.0827,-0.0161 -0.1932,-0.10062 -0.24902,0.0159 -0.0409,0.0837 0.0108,0.18138 0.0647,0.26403 0.14444,0.22005 0.37055,0.28485 0.60963,0.31279 0.37851,0.0437 0.75308,0.004 1.1236,-0.0907 0.10753,-0.0269 0.27192,-0.14545 0.33068,0.0419 0.0498,0.15436 -0.1175,0.21812 -0.2291,0.26789 -0.59664,0.27101 -1.23214,0.34367 -1.86963,0.26101 -0.25503,-0.0329 -0.47813,-0.004 -0.71723,0.0389 -0.33261,0.0597 -0.55877,-0.0818 -0.69524,-0.4005 -0.2271,-0.52991 -0.47215,-1.05183 -0.71716,-1.57477 -0.0508,-0.11055 -0.0867,-0.29285 -0.23011,-0.27091 -0.13446,0.0198 -0.14938,0.19521 -0.16433,0.3247 -0.0498,0.41039 -0.11356,0.81978 -0.13848,1.23219 -0.0169,0.27492 -0.0806,0.43029 -0.39243,0.33562 -0.0667,-0.0198 -0.1415,-0.0259 -0.21117,-0.0188 -0.30977,0.0279 -0.4672,-0.0866 -0.4672,-0.41835 -0.003,-0.25498 -0.12051,-0.21418 -0.2799,-0.0917 -0.36457,0.28091 -0.73813,0.55081 -1.15549,0.75004 -0.59161,0.28493 -1.04984,0.022 -1.10656,-0.64042 -0.0339,-0.40143 -0.0101,-0.80192 0.0418,-1.20232 0.0677,-0.51792 0.0329,-0.54184 -0.47017,-0.508 -0.12453,0.008 -0.3367,0.14248 -0.33871,-0.14242 -0.003,-0.2032 -0.0418,-0.41932 0.29289,-0.44625 m 14.11444,6.96471 c 0.13644,-0.37153 -0.0727,-0.46117 -0.37458,-0.48207 -0.0946,-0.006 -0.18925,-0.009 -0.28384,-0.0119 -0.80978,0.0378 -1.58478,0.22616 -2.32489,0.55382 -0.75399,0.3337 -1.44429,0.75708 -1.93736,1.43833 -0.57875,0.79687 -0.5279,1.52107 0.14343,2.23324 0.34269,0.36357 0.7461,0.64942 1.16541,0.91739 0.11059,0.0707 0.22214,0.10057 0.33173,0.0338 0.44223,-0.26696 0.92933,-0.46016 1.30188,-0.84068 0.71419,-0.7311 1.33374,-1.52998 1.78499,-2.45031 0.17031,-0.34568 0.34261,-0.70128 0.1823,-1.11167 -0.0319,-0.0807 -0.0199,-0.19521 0.0109,-0.2799" />
  </g>
</svg>
